<?xml version="1.0" encoding="UTF-8" standalone="no"?>
<!-- Created with Inkscape (http://www.inkscape.org/) -->

<svg
   version="1.1"
   id="svg1"
   width="450.84378"
   height="284.72653"
   viewBox="0 0 450.84378 284.72653"
   xmlns="http://www.w3.org/2000/svg"
   xmlns:svg="http://www.w3.org/2000/svg">
  <defs
     id="defs1">
    <clipPath
       clipPathUnits="userSpaceOnUse"
       id="clipPath166">
      <path
         d="M 0,793.70133 H 559.37067 V 0 H 0 Z"
         id="path166" />
    </clipPath>
  </defs>
  <g
     id="g1"
     transform="translate(-47.455284,-241.81021)">
    <g
       id="g165"
       clip-path="url(#clipPath166)"
       transform="translate(21.763877,210.83755)">
      <path
         d="M 8.7190234,-4.953125e-4 H 12.375273 L 7.7815234,-10.500495 H 4.3010547 L -0.28097656,-4.953125e-4 H 3.3166797 L 4.0198047,-1.8286203 H 8.0158984 Z M 4.9924609,-4.3833078 6.0119922,-7.0200266 7.0315234,-4.3833078 Z M 23.704375,-8.3559641 c -1.125,0 -2.085937,0.4453125 -2.753906,1.2421875 -0.5625,-0.8554687 -1.5,-1.2421875 -2.554688,-1.2421875 -0.902343,0 -1.710937,0.3046875 -2.332031,0.9140625 v -0.7617187 h -3.222656 v 8.2031249875 h 3.386719 V -4.0083078 c 0,-1.0898438 0.46875,-1.5 1.066406,-1.5 0.574219,0 0.914062,0.3984375 0.914062,1.4179687 v 4.0898437875 h 3.398438 V -4.0083078 c 0,-1.0898438 0.457031,-1.5 1.054687,-1.5 0.539063,0 0.914063,0.3984375 0.914063,1.4179687 v 4.0898437875 h 3.398437 V -4.6762766 c 0,-2.5898437 -1.417968,-3.6796875 -3.269531,-3.6796875 z m 13.78125,5.6132813 1.5,-1.3710938 c 1.523437,-1.3710937 1.792969,-2.3085937 1.792969,-3.3398437 0,-1.9921875 -1.746094,-3.2812497 -4.242188,-3.2812497 -2.261719,0 -3.773437,0.9843747 -4.546875,2.4257809 l 2.671875,1.3359375 c 0.316406,-0.6328125 0.914063,-0.9726562 1.546875,-0.9726562 0.679688,0 1.019531,0.3046875 1.019531,0.8203125 0,0.3632812 -0.105468,0.7617187 -0.820312,1.4414062 l -3.796875,3.5039063 v 2.1796874875 h 8.414062 V -2.7426828 Z m 4.139648,-7.7578122 v 4.2773434 h 2.917969 v -1.5351562 h 2.027344 l -3.328125,7.7578124875 h 3.867187 L 50.613555,-8.3208078 v -2.1796872 z m 10.96875,10.65234344 c 1.125,0 1.980469,-0.80859375 1.980469,-1.95703124 0,-1.1484375 -0.855469,-1.9101563 -1.980469,-1.9101563 -1.125,0 -1.980468,0.7617188 -1.980468,1.9101563 0,1.14843749 0.855468,1.95703124 1.980468,1.95703124 z m 11.545899,0.0820313 c 3.257812,0 4.886719,-1.61718754 4.886719,-3.53906254 0,-3.8671875 -5.800782,-2.8125 -5.800782,-4.078125 0,-0.3515625 0.328125,-0.65625 1.359375,-0.65625 0.925782,0 1.898438,0.2578125 2.929688,0.7734375 l 1.066406,-2.5546875 c -1.101562,-0.6210942 -2.554687,-0.9140622 -3.960937,-0.9140622 -3.257813,0 -4.886719,1.5820309 -4.886719,3.5390622 0,3.9140625 5.800781,2.8476562 5.800781,4.1601562 0,0.3632813 -0.363281,0.5742188 -1.359375,0.5742188 -1.160156,0 -2.484375,-0.375 -3.46875,-0.9609375 l -1.136719,2.57812504 c 1.042969,0.64453125 2.8125,1.078125 4.570313,1.078125 z M 78.706328,-4.1137766 c 0,-2.7773437 -2.085937,-4.2421875 -4.511719,-4.2421875 -2.660156,0 -4.652343,1.7578125 -4.652343,4.2421875 0,2.4492188 1.945312,4.26562504 4.96875,4.26562504 1.628906,0 2.789062,-0.45703125 3.574218,-1.32421874 l -1.769531,-1.78125 c -0.539062,0.3984375 -0.949219,0.5976562 -1.699219,0.5976562 -0.84375,0 -1.417968,-0.328125 -1.652343,-0.9609375 h 5.695312 c 0.01172,-0.234375 0.04687,-0.5507812 0.04687,-0.796875 z m -4.488281,-1.9335937 c 0.691406,0 1.183594,0.4101562 1.324219,1.1015625 h -2.636719 c 0.128906,-0.6914063 0.609375,-1.1015625 1.3125,-1.1015625 z m 11.024414,-2.3085938 c -1.019531,0 -1.757813,0.2695313 -2.25,0.8203125 v -0.6679687 h -3.222656 v 11.109375 h 3.386718 v -3.45703126 c 0.503907,0.48046875 1.183594,0.703125 2.085938,0.703125 2.144531,0 3.960937,-1.60546874 3.960937,-4.24218754 0,-2.6484375 -1.816406,-4.265625 -3.960937,-4.265625 z m -0.808594,5.8710938 c -0.75,0 -1.335937,-0.5507813 -1.335937,-1.6054688 0,-1.0664062 0.585937,-1.6289062 1.335937,-1.6289062 0.75,0 1.335938,0.5625 1.335938,1.6289062 0,1.0546875 -0.585938,1.6054688 -1.335938,1.6054688 z m 11.074219,-0.1523438 c -0.222656,0.1523438 -0.503906,0.2226563 -0.773438,0.2226563 -0.398437,0 -0.703125,-0.28125 -0.703125,-0.796875 v -2.0742188 h 1.6875 v -2.4726562 h -1.6875 v -2.2968752 h -3.386718 v 2.2968752 h -1.125 v 2.4726562 h 1.125 v 2.109375 c 0,2.26171879 1.324218,3.32812504 3.585937,3.32812504 0.796875,0 1.558594,-0.140625 2.085938,-0.43359375 z M 105.6741,-4.1137766 c 0,-2.7773437 -2.08594,-4.2421875 -4.51172,-4.2421875 -2.660153,0 -4.652341,1.7578125 -4.652341,4.2421875 0,2.4492188 1.945313,4.26562504 4.968751,4.26562504 1.62891,0 2.78906,-0.45703125 3.57422,-1.32421874 l -1.76953,-1.78125 c -0.53907,0.3984375 -0.94922,0.5976562 -1.69922,0.5976562 -0.84375,0 -1.41797,-0.328125 -1.652346,-0.9609375 h 5.695316 c 0.0117,-0.234375 0.0469,-0.5507812 0.0469,-0.796875 z m -4.48828,-1.9335937 c 0.69141,0 1.18359,0.4101562 1.32422,1.1015625 h -2.63672 c 0.12891,-0.6914063 0.60938,-1.1015625 1.3125,-1.1015625 z m 16.41504,-2.3085938 c -1.125,0 -2.08594,0.4453125 -2.75391,1.2421875 -0.5625,-0.8554687 -1.5,-1.2421875 -2.55468,-1.2421875 -0.90235,0 -1.71094,0.3046875 -2.33204,0.9140625 v -0.7617187 h -3.22265 v 8.2031249875 h 3.38672 V -4.0083078 c 0,-1.0898438 0.46875,-1.5 1.0664,-1.5 0.57422,0 0.91407,0.3984375 0.91407,1.4179687 v 4.0898437875 h 3.39843 V -4.0083078 c 0,-1.0898438 0.45703,-1.5 1.05469,-1.5 0.53906,0 0.91406,0.3984375 0.91406,1.4179687 v 4.0898437875 h 3.39844 V -4.6762766 c 0,-2.5898437 -1.41797,-3.6796875 -3.26953,-3.6796875 z m 10.20996,0 c -0.90234,0 -1.58203,0.2226563 -2.08594,0.703125 v -3.4804689 h -3.38672 V -4.953125e-4 h 3.22266 V -0.68018281 c 0.49219,0.5625 1.23047,0.83203125 2.25,0.83203125 2.14453,0 3.96094,-1.61718754 3.96094,-4.26562504 0,-2.6367187 -1.81641,-4.2421875 -3.96094,-4.2421875 z m -0.80859,5.8710938 c -0.75,0 -1.33594,-0.5625 -1.33594,-1.6289063 0,-1.0664062 0.58594,-1.6054687 1.33594,-1.6054687 0.75,0 1.33593,0.5390625 1.33593,1.6054687 0,1.0664063 -0.58593,1.6289063 -1.33593,1.6289063 z m 14.5664,-1.6289063 c 0,-2.7773437 -2.08593,-4.2421875 -4.51172,-4.2421875 -2.66015,0 -4.65234,1.7578125 -4.65234,4.2421875 0,2.4492188 1.94531,4.26562504 4.96875,4.26562504 1.62891,0 2.78906,-0.45703125 3.57422,-1.32421874 l -1.76953,-1.78125 c -0.53906,0.3984375 -0.94922,0.5976562 -1.69922,0.5976562 -0.84375,0 -1.41797,-0.328125 -1.65234,-0.9609375 h 5.69531 c 0.0117,-0.234375 0.0469,-0.5507812 0.0469,-0.796875 z m -4.48828,-1.9335937 c 0.69141,0 1.1836,0.4101562 1.32422,1.1015625 h -2.63672 c 0.12891,-0.6914063 0.60938,-1.1015625 1.3125,-1.1015625 z m 8.77442,-1.2773438 v -0.8789062 h -3.22266 v 8.2031249875 h 3.38672 V -3.6450266 c 0,-1.3007812 0.72656,-1.7695312 1.74609,-1.7695312 0.23438,0 0.44531,0.011719 0.75,0.058594 v -3 c -1.14844,0 -2.0625,0.3398438 -2.66015,1.0312497 z m 12.66503,4.5820313 1.5,-1.3710938 c 1.52344,-1.3710937 1.79297,-2.3085937 1.79297,-3.3398437 0,-1.9921875 -1.74609,-3.2812497 -4.24218,-3.2812497 -2.26172,0 -3.77344,0.9843747 -4.54688,2.4257809 l 2.67188,1.3359375 c 0.3164,-0.6328125 0.91406,-0.9726562 1.54687,-0.9726562 0.67969,0 1.01953,0.3046875 1.01953,0.8203125 0,0.3632812 -0.10547,0.7617187 -0.82031,1.4414062 l -3.79688,3.5039063 v 2.1796874875 h 8.41407 V -2.7426828 Z m 9.01465,2.97656249 c 2.77735,0 4.75782,-2.00390629 4.75782,-5.48437499 0,-3.4804688 -1.98047,-5.4843747 -4.75782,-5.4843747 -2.77734,0 -4.75781,2.0039059 -4.75781,5.4843747 0,3.4804687 1.98047,5.48437499 4.75781,5.48437499 z m 0,-2.82421879 c -0.6914,0 -1.20703,-0.6328125 -1.20703,-2.6601562 0,-2.0273438 0.51563,-2.6601563 1.20703,-2.6601563 0.69141,0 1.19532,0.6328125 1.19532,2.6601563 0,2.0273437 -0.50391,2.6601562 -1.19532,2.6601562 z m 10.33594,-0.1523437 1.5,-1.3710938 c 1.52344,-1.3710937 1.79297,-2.3085937 1.79297,-3.3398437 0,-1.9921875 -1.74609,-3.2812497 -4.24219,-3.2812497 -2.26172,0 -3.77344,0.9843747 -4.54687,2.4257809 l 2.67187,1.3359375 c 0.31641,-0.6328125 0.91406,-0.9726562 1.54688,-0.9726562 0.67968,0 1.01953,0.3046875 1.01953,0.8203125 0,0.3632812 -0.10547,0.7617187 -0.82031,1.4414062 l -3.79688,3.5039063 v 2.1796874875 h 8.41406 V -2.7426828 Z m 9.96387,-4.0546875 c -0.89063,0 -1.57031,0.2109375 -2.08594,0.5859375 0.23438,-1.171875 1.07813,-1.78125 2.27344,-1.78125 0.65625,0 1.28906,0.1171875 1.91015,0.5507812 l 1.27735,-2.4726562 c -0.79688,-0.5273442 -2.01563,-0.8203122 -3.25781,-0.8203122 -3.46875,0 -5.82422,2.1445309 -5.82422,5.8124997 0,3.4335937 2.03906,5.15624999 5.03906,5.15624999 2.36719,0 4.26562,-1.41796879 4.26562,-3.66796879 0,-2.0507812 -1.6875,-3.3632812 -3.59765,-3.3632812 z m -0.90235,4.59375 c -0.63281,0 -1.07812,-0.4101563 -1.07812,-1.0664063 0,-0.65625 0.44531,-1.078125 1.07812,-1.078125 0.6211,0 1.07813,0.421875 1.07813,1.078125 0,0.65625 -0.45703,1.0664063 -1.07813,1.0664063 z m 6.96094,-2.2851563 c 1.125,0 1.98047,-0.8085937 1.98047,-1.9453125 0,-1.1601562 -0.85547,-1.921875 -1.98047,-1.921875 -1.125,0 -1.98047,0.7617188 -1.98047,1.921875 0,1.1367188 0.85547,1.9453125 1.98047,1.9453125 z m 0,4.64062504 c 1.125,0 1.98047,-0.80859375 1.98047,-1.95703124 0,-1.1484375 -0.85547,-1.9101563 -1.98047,-1.9101563 -1.125,0 -1.98047,0.7617188 -1.98047,1.9101563 0,1.14843749 0.85547,1.95703124 1.98047,1.95703124 z m 0,0"
         style="fill:#005b91;fill-opacity:1;fill-rule:nonzero;stroke:none"
         aria-label="Am 27. September 2026:"
         transform="matrix(1.3333333,0,0,1.3333333,26.456667,45.817067)"
         id="path163" />
      <path
         d="M 41.319248,-34.452016 V -46.194203 H 3.7606547 V 0.00110937 H 19.334873 V -14.787953 H 38.612217 V -26.530141 H 19.334873 v -7.921875 z M 61.18253,-49.428578 c 3.363281,0 5.941406,-2.308594 5.941406,-5.8125 0,-3.492188 -2.578125,-5.871094 -5.941406,-5.871094 -3.363282,0 -5.941407,2.378906 -5.941407,5.871094 0,3.503906 2.578125,5.8125 5.941407,5.8125 z m 14.648437,0 c 3.363281,0 5.941406,-2.308594 5.941406,-5.8125 0,-3.492188 -2.578125,-5.871094 -5.941406,-5.871094 -3.363281,0 -5.941406,2.378906 -5.941406,5.871094 0,3.503906 2.578125,5.8125 5.941406,5.8125 z M 68.377842,1.0557969 c 14.191406,0 22.5,-7.9804688 22.5,-21.8437499 v -25.40625 H 75.573155 v 24.9375 c 0,7.066406 -2.707032,9.703125 -7.066407,9.703125 -4.359375,0 -7.066406,-2.636719 -7.066406,-9.703125 v -24.9375 H 45.866123 v 25.40625 c 0,13.8632811 8.320313,21.8437499 22.511719,21.8437499 z M 125.66495,0.00110937 h 16.62891 L 132.59073,-14.260609 c 5.54297,-2.835938 8.71875,-7.851563 8.71875,-14.519532 0,-10.6875 -8.1914,-17.414062 -21.05859,-17.414062 H 98.008702 V 0.00110937 H 113.58292 V -11.612172 h 4.23047 z m -0.0703,-28.78125037 c 0,3.375 -2.03906,5.414063 -6.32813,5.414063 h -5.68359 v -10.816406 h 5.68359 c 4.28907,0 6.32813,2.039062 6.32813,5.402343 z m 56.30273,-20.648437 c 3.36328,0 5.94141,-2.308594 5.94141,-5.8125 0,-3.492188 -2.57813,-5.871094 -5.94141,-5.871094 -3.36328,0 -5.9414,2.378906 -5.9414,5.871094 0,3.503906 2.57812,5.8125 5.9414,5.8125 z m 14.64844,0 c 3.36328,0 5.94141,-2.308594 5.94141,-5.8125 0,-3.492188 -2.57813,-5.871094 -5.94141,-5.871094 -3.36328,0 -5.94141,2.378906 -5.94141,5.871094 0,3.503906 2.57813,5.8125 5.94141,5.8125 z M 189.0927,1.0557969 c 14.1914,0 22.5,-7.9804688 22.5,-21.8437499 v -25.40625 H 196.288 v 24.9375 c 0,7.066406 -2.70703,9.703125 -7.06641,9.703125 -4.35937,0 -7.0664,-2.636719 -7.0664,-9.703125 v -24.9375 h -15.57422 v 25.40625 c 0,13.8632811 8.32031,21.8437499 22.51172,21.8437499 z m 46.85742,0 c 14.32031,0 21.51562,-7.125 21.51562,-15.5742189 0,-17.027344 -25.54687,-12.410156 -25.54687,-17.953125 0,-1.582031 1.45312,-2.90625 6.01172,-2.90625 4.01953,0 8.32031,1.125 12.86718,3.433594 l 4.6875,-11.285156 c -4.8164,-2.707032 -11.21484,-4.03125 -17.42578,-4.03125 -14.32031,0 -21.51562,6.996093 -21.51562,15.585937 0,17.226563 25.54687,12.539063 25.54687,18.339844 0,1.59375 -1.58203,2.507812 -6.01172,2.507812 -5.07421,0 -10.88671,-1.640625 -15.24609,-4.21875 l -5.01562,11.3554691 c 4.61718,2.83593752 12.41015,4.7460938 20.13281,4.7460938 z m 26.13574,-1.05468753 h 15.57422 V -46.194203 H 262.08585 Z M 40.721592,34.852672 c 4.21875,-2.121094 6.398438,-5.683594 6.398438,-9.972656 0,-6.996094 -5.941407,-12.070313 -18.679688,-12.070313 H 3.7606547 V 59.005016 H 29.764561 c 12.738281,0 19.535156,-4.6875 19.535156,-12.738282 0,-5.472656 -3.164062,-9.433593 -8.578125,-11.414062 z M 26.330967,23.696422 c 3.503906,0 5.085938,1.183594 5.085938,3.433594 0,2.238281 -1.582032,3.433593 -5.085938,3.433593 h -7.253906 v -6.867187 z m 2.109375,24.421875 h -9.363281 v -7.265625 h 9.363281 c 3.433594,0 5.15625,1.253906 5.15625,3.632812 0,2.378907 -1.722656,3.632813 -5.15625,3.632813 z M 89.363194,59.005016 H 105.46476 L 85.27335,12.809703 H 69.956944 L 49.765537,59.005016 h 15.84375 l 3.09375,-8.050782 H 86.257725 Z M 72.9921,39.727672 77.480381,28.114391 81.968662,39.727672 Z m 34.9834,19.277344 h 22.76953 c 15.44531,0 26.07422,-8.777344 26.07422,-23.097657 0,-14.320312 -10.62891,-23.097656 -26.07422,-23.097656 H 107.9755 Z M 123.54972,46.864391 V 24.950328 h 6.53906 c 6.52734,0 11.01562,3.890625 11.01562,10.957031 0,7.054688 -4.48828,10.957032 -11.01562,10.957032 z m 38.9414,12.140625 h 15.57422 V 12.809703 h -15.57422 z m 0,0"
         style="fill:#005b91;fill-opacity:1;fill-rule:nonzero;stroke:none"
         aria-label="FÜR  ÜSI &#10;BADI"
         transform="matrix(1.3333333,0,0,1.3333333,22.6772,143.38133)"
         id="path164" />
      <path
         d="m 5.6135547,0.38809531 c 4.5117183,0 6.9375003,-2.26171871 6.9375003,-6.86718751 V -16.803311 H 1.2424609 v 4.277344 h 5.71875 v 6.3867186 c 0,1.359375 -0.6445312,2.0859375 -1.828125,2.0859375 -0.9375,0 -1.7695312,-0.5507813 -2.6601562,-1.6523438 l -3.04687501,3.5976563 C 0.82058594,-0.47909219 3.0002734,0.38809531 5.6135547,0.38809531 Z M 28.939727,-6.5728422 c 0,-4.4414058 -3.328125,-6.7968748 -7.21875,-6.7968748 -4.253907,0 -7.441407,2.8125 -7.441407,6.7968748 0,3.9140625 3.117188,6.80859376 7.945313,6.80859376 2.613281,0 4.464844,-0.71484375 5.730469,-2.10937496 l -2.824219,-2.8476563 c -0.867188,0.6445313 -1.535156,0.9492188 -2.742188,0.9492188 -1.335937,0 -2.25,-0.5273438 -2.636718,-1.5351563 h 9.117187 c 0.02344,-0.375 0.07031,-0.8789062 0.07031,-1.265625 z m -7.171875,-3.09375 c 1.101562,0 1.898437,0.6445313 2.109375,1.7460938 h -4.21875 c 0.210937,-1.1015625 0.984375,-1.7460938 2.109375,-1.7460938 z m 17.252929,5.4492188 c -0.363281,0.234375 -0.785156,0.3515625 -1.21875,0.3515625 -0.65625,0 -1.136719,-0.4570313 -1.136719,-1.265625 v -3.3164063 h 2.695313 V -12.40878 h -2.695313 v -3.667968 H 31.25125 v 3.667968 h -1.804687 v 3.9609378 h 1.804687 v 3.3632813 c 0,3.6210937 2.109375,5.32031246 5.730469,5.32031246 1.277343,0 2.496093,-0.2109375 3.339843,-0.69140625 z m 9.026367,0.2578125 5.425782,-6.0468751 v -3.117187 H 41.402617 v 3.9609371 h 5.226563 l -5.425782,6.046875 V 0.00137656 H 53.730742 V -3.9595609 Z m 15.814454,-0.2578125 c -0.363282,0.234375 -0.785157,0.3515625 -1.21875,0.3515625 -0.65625,0 -1.136719,-0.4570313 -1.136719,-1.265625 v -3.3164063 h 2.695312 V -12.40878 h -2.695312 v -3.667968 H 56.09207 v 3.667968 h -1.804687 v 3.9609378 h 1.804687 v 3.3632813 c 0,3.6210937 2.109375,5.32031246 5.730469,5.32031246 1.277344,0 2.496094,-0.2109375 3.339844,-0.69140625 z m 18.990234,-9.1523436 c -1.417969,0 -2.695313,0.433594 -3.703125,1.300781 v -5.742187 H 73.72293 V 0.00137656 h 5.425781 V -6.1626859 c 0,-1.9453125 0.9375,-2.6484375 2.039062,-2.6484375 0.984375,0 1.617188,0.6328125 1.617188,2.2617187 v 6.55078126 h 5.414062 V -7.4869047 c 0,-4.1250003 -2.34375,-5.8828123 -5.367187,-5.8828123 z m 13.602539,0 c -2.039063,0 -4.371094,0.527344 -5.90625,1.488281 l 1.734375,3.5742188 c 0.867187,-0.6445312 2.179687,-1.03125 3.363281,-1.03125 1.535156,0 2.296875,0.5273438 2.460938,1.5351563 h -2.179688 c -4.078125,0 -6,1.4179687 -6,3.9609375 0,2.2617187 1.652344,4.07812496 4.875,4.07812496 1.851563,0 3.09375,-0.64453125 3.714844,-1.95703126 v 1.72265626 h 5.039065 V -7.0533109 c 0,-4.3710941 -2.58985,-6.3164061 -7.101565,-6.3164061 z m -0.02344,10.3476561 c -0.820312,0 -1.289062,-0.4570313 -1.289062,-1.0546875 0,-0.7265625 0.503906,-1.1015625 1.652344,-1.1015625 h 1.347656 v 0.9023437 c -0.292969,0.8671875 -0.960938,1.2539063 -1.710938,1.2539063 z M 115.03738,-13.369717 c -1.53515,0 -2.92968,0.503906 -3.96093,1.535156 v -1.289062 h -5.16797 V 0.00137656 h 5.42578 V -6.1626859 c 0,-1.9453125 0.9375,-2.6484375 2.03906,-2.6484375 0.98438,0 1.61719,0.6328125 1.61719,2.2617187 v 6.55078126 h 5.41406 V -7.4869047 c 0,-4.1250003 -2.34375,-5.8828123 -5.36719,-5.8828123 z m 17.05957,-4.441406 v 5.578125 c -0.79687,-0.773438 -1.89843,-1.136719 -3.33984,-1.136719 -3.43359,0 -6.33984,2.566406 -6.33984,6.7968748 0,4.21875 2.90625,6.80859376 6.33984,6.80859376 1.62891,0 2.8125,-0.421875 3.59766,-1.31249996 v 1.07812496 h 5.15625 V -17.811123 Z m -2.03906,13.8281246 c -1.20703,0 -2.14453,-0.890625 -2.14453,-2.5898438 0,-1.7109375 0.9375,-2.5664062 2.14453,-2.5664062 1.19531,0 2.13281,0.8554687 2.13281,2.5664062 0,1.6992188 -0.9375,2.5898438 -2.13281,2.5898438 z m 23.82422,-2.5898438 c 0,-4.4414058 -3.32813,-6.7968748 -7.21875,-6.7968748 -4.25391,0 -7.44141,2.8125 -7.44141,6.7968748 0,3.9140625 3.11719,6.80859376 7.94532,6.80859376 2.61328,0 4.46484,-0.71484375 5.73046,-2.10937496 l -2.82421,-2.8476563 c -0.86719,0.6445313 -1.53516,0.9492188 -2.74219,0.9492188 -1.33594,0 -2.25,-0.5273438 -2.63672,-1.5351563 h 9.11719 c 0.0234,-0.375 0.0703,-0.8789062 0.0703,-1.265625 z m -7.17188,-3.09375 c 1.10157,0 1.89844,0.6445313 2.10938,1.7460938 h -4.21875 c 0.21094,-1.1015625 0.98437,-1.7460938 2.10937,-1.7460938 z m 8.87403,9.66796876 h 5.42578 V -17.811123 h -5.42578 z m 16.9541,-13.37109356 c -1.53516,0 -2.92969,0.503906 -3.96094,1.535156 v -1.289062 h -5.16797 V 0.00137656 h 5.42578 V -6.1626859 c 0,-1.9453125 0.9375,-2.6484375 2.03907,-2.6484375 0.98437,0 1.61718,0.6328125 1.61718,2.2617187 v 6.55078126 h 5.41407 V -7.4869047 c 0,-4.1250003 -2.34375,-5.8828123 -5.36719,-5.8828123 z m 20.0625,13.60546856 c 4.55859,0 6.78516,-2.06249996 6.78516,-4.42968746 0,-5.2617188 -7.53516,-3.4804688 -7.53516,-4.8515625 0,-0.3164063 0.38672,-0.6210938 1.78125,-0.6210938 1.10156,0 2.44922,0.2109375 3.78516,0.9609375 l 1.48828,-3.5859373 c -1.38282,-0.714844 -3.4336,-1.078125 -5.34375,-1.078125 -4.41797,0 -6.72657,2.015625 -6.72657,4.4882811 0,5.2617187 7.5586,3.4570312 7.5586,4.8046875 0,0.3867187 -0.35156,0.6210937 -1.67578,0.6210937 -1.5586,0 -3.33985,-0.4335937 -4.58203,-1.171875 l -1.48829,3.5742188 c 1.33594,0.76171871 3.69141,1.28906246 5.95313,1.28906246 z m 16.7959,-4.45312496 c -0.36328,0.234375 -0.78516,0.3515625 -1.21875,0.3515625 -0.65625,0 -1.13672,-0.4570313 -1.13672,-1.265625 v -3.3164063 h 2.69531 V -12.40878 h -2.69531 v -3.667968 h -5.41406 v 3.667968 h -1.80469 v 3.9609378 h 1.80469 v 3.3632813 c 0,3.6210937 2.10937,5.32031246 5.73047,5.32031246 1.27734,0 2.49609,-0.2109375 3.33984,-0.69140625 z m 8.54297,-9.1523436 c -2.03907,0 -4.3711,0.527344 -5.90625,1.488281 l 1.73437,3.5742188 c 0.86719,-0.6445312 2.17969,-1.03125 3.36328,-1.03125 1.53516,0 2.29688,0.5273438 2.46094,1.5351563 h -2.17969 c -4.07812,0 -6,1.4179687 -6,3.9609375 0,2.2617187 1.65235,4.07812496 4.875,4.07812496 1.85157,0 3.09375,-0.64453125 3.71485,-1.95703126 v 1.72265626 h 5.03906 V -7.0533109 c 0,-4.3710941 -2.58984,-6.3164061 -7.10156,-6.3164061 z m -0.0234,10.3476561 c -0.82031,0 -1.28906,-0.4570313 -1.28906,-1.0546875 0,-0.7265625 0.5039,-1.1015625 1.65234,-1.1015625 h 1.34766 v 0.9023437 c -0.29297,0.8671875 -0.96094,1.2539063 -1.71094,1.2539063 z m 17.85644,-1.1953125 c -0.36328,0.234375 -0.78515,0.3515625 -1.21875,0.3515625 -0.65625,0 -1.13671,-0.4570313 -1.13671,-1.265625 v -3.3164063 h 2.69531 V -12.40878 h -2.69531 v -3.667968 h -5.41407 v 3.667968 h -1.80468 v 3.9609378 h 1.80468 v 3.3632813 c 0,3.6210937 2.10938,5.32031246 5.73047,5.32031246 1.27735,0 2.4961,-0.2109375 3.33985,-0.69140625 z m 10.79883,0 c -0.36328,0.234375 -0.78515,0.3515625 -1.21875,0.3515625 -0.65625,0 -1.13672,-0.4570313 -1.13672,-1.265625 v -3.3164063 h 2.69532 V -12.40878 h -2.69532 v -3.667968 h -5.41406 v 3.667968 h -1.80469 v 3.9609378 h 1.80469 v 3.3632813 c 0,3.6210937 2.10938,5.32031246 5.73047,5.32031246 1.27734,0 2.49609,-0.2109375 3.33984,-0.69140625 z m 15.00879,4.45312496 c 4.5586,0 6.78516,-2.06249996 6.78516,-4.42968746 0,-5.2617188 -7.53516,-3.4804688 -7.53516,-4.8515625 0,-0.3164063 0.38672,-0.6210938 1.78125,-0.6210938 1.10156,0 2.44922,0.2109375 3.78516,0.9609375 l 1.48828,-3.5859373 c -1.38281,-0.714844 -3.43359,-1.078125 -5.34375,-1.078125 -4.41797,0 -6.72656,2.015625 -6.72656,4.4882811 0,5.2617187 7.55859,3.4570312 7.55859,4.8046875 0,0.3867187 -0.35156,0.6210937 -1.67578,0.6210937 -1.55859,0 -3.33984,-0.4335937 -4.58203,-1.171875 l -1.48828,3.5742188 c 1.33593,0.76171871 3.6914,1.28906246 5.95312,1.28906246 z M 278.76004,-13.369717 c -1.62891,0 -2.8125,0.433594 -3.59766,1.324219 v -1.078125 h -5.16797 V 4.6537203 h 5.42579 v -5.54296874 c 0.79687,0.7734375 1.89843,1.125 3.33984,1.125 3.43359,0 6.33984,-2.56640626 6.33984,-6.78515626 0,-4.2304683 -2.90625,-6.8203123 -6.33984,-6.8203123 z m -1.30078,9.3867186 c -1.19531,0 -2.13281,-0.8671875 -2.13281,-2.5664063 0,-1.7109375 0.9375,-2.5898437 2.13281,-2.5898437 1.20703,0 2.14453,0.8789062 2.14453,2.5898437 0,1.6992188 -0.9375,2.5664063 -2.14453,2.5664063 z M 290.30301,-14.37753 c 1.23047,0 2.15625,-0.832031 2.15625,-2.109375 0,-1.277343 -0.92578,-2.132812 -2.15625,-2.132812 -1.21875,0 -2.15625,0.855469 -2.15625,2.132812 0,1.277344 0.9375,2.109375 2.15625,2.109375 z m 5.33203,0 c 1.21875,0 2.15625,-0.832031 2.15625,-2.109375 0,-1.277343 -0.9375,-2.132812 -2.15625,-2.132812 -1.23047,0 -2.16797,0.855469 -2.16797,2.132812 0,1.277344 0.9375,2.109375 2.16797,2.109375 z m -3.29297,1.007813 c -2.03906,0 -4.37109,0.527344 -5.90625,1.488281 l 1.73438,3.5742188 c 0.86718,-0.6445312 2.17968,-1.03125 3.36328,-1.03125 1.53515,0 2.29687,0.5273438 2.46093,1.5351563 h -2.17968 c -4.07813,0 -6,1.4179687 -6,3.9609375 0,2.2617187 1.65234,4.07812496 4.875,4.07812496 1.85156,0 3.09375,-0.64453125 3.71484,-1.95703126 v 1.72265626 h 5.03906 V -7.0533109 c 0,-4.3710941 -2.58984,-6.3164061 -7.10156,-6.3164061 z m -0.0234,10.3476561 c -0.82031,0 -1.28906,-0.4570313 -1.28906,-1.0546875 0,-0.7265625 0.50391,-1.1015625 1.65234,-1.1015625 h 1.34766 v 0.9023437 c -0.29297,0.8671875 -0.96094,1.2539063 -1.71094,1.2539063 z m 17.85645,-1.1953125 c -0.36328,0.234375 -0.78516,0.3515625 -1.21875,0.3515625 -0.65625,0 -1.13672,-0.4570313 -1.13672,-1.265625 v -3.3164063 h 2.69531 V -12.40878 h -2.69531 v -3.667968 h -5.41406 v 3.667968 h -1.80469 v 3.9609378 h 1.80469 v 3.3632813 c 0,3.6210937 2.10937,5.32031246 5.73047,5.32031246 1.27734,0 2.49609,-0.2109375 3.33984,-0.69140625 z m 16.26855,-2.3554688 c 0,-4.4414058 -3.32812,-6.7968748 -7.21875,-6.7968748 -4.2539,0 -7.4414,2.8125 -7.4414,6.7968748 0,3.9140625 3.11718,6.80859376 7.94531,6.80859376 2.61328,0 4.46484,-0.71484375 5.73047,-2.10937496 l -2.82422,-2.8476563 c -0.86719,0.6445313 -1.53516,0.9492188 -2.74219,0.9492188 -1.33594,0 -2.25,-0.5273438 -2.63672,-1.5351563 h 9.11719 c 0.0234,-0.375 0.0703,-0.8789062 0.0703,-1.265625 z m -7.17187,-3.09375 c 1.10156,0 1.89844,0.6445313 2.10937,1.7460938 h -4.21875 c 0.21094,-1.1015625 0.98438,-1.7460938 2.10938,-1.7460938 z m 14.04492,-2.0390628 v -1.417968 h -5.16797 V 0.00137656 h 5.42578 V -5.8345609 c 0,-2.0859375 1.16016,-2.8242188 2.78906,-2.8242188 0.38672,0 0.71485,0.023437 1.19532,0.09375 v -4.8046873 c -1.81641,0 -3.28125,0.550781 -4.24219,1.664062 z M 10.676055,13.876377 7.8518359,20.907627 5.2033984,13.876377 h -5.56640621 l 5.28515621,13.125 H 10.53543 l 5.285156,-13.125 z m 12.553711,13.359375 c 4.464843,0 7.640625,-2.824219 7.640625,-6.808594 0,-3.984375 -3.175782,-6.796875 -7.640625,-6.796875 -4.441407,0 -7.628907,2.8125 -7.628907,6.796875 0,3.984375 3.1875,6.808594 7.628907,6.808594 z m 0,-4.21875 c -1.195313,0 -2.132813,-0.890625 -2.132813,-2.589844 0,-1.710938 0.9375,-2.566406 2.132813,-2.566406 1.207031,0 2.144531,0.855468 2.144531,2.566406 0,1.699219 -0.9375,2.589844 -2.144531,2.589844 z m 18.46289,-9.386719 c -1.535156,0 -2.929687,0.503906 -3.960937,1.535156 V 13.876377 H 32.56375 v 13.125 h 5.425781 v -6.164063 c 0,-1.945312 0.9375,-2.648437 2.039063,-2.648437 0.984375,0 1.617187,0.632812 1.617187,2.261718 v 6.550782 h 5.414063 v -7.488282 c 0,-4.125 -2.34375,-5.882812 -5.367188,-5.882812 z m 24.398438,0.246094 -2.824219,7.03125 -2.648438,-7.03125 h -5.566406 l 5.285156,13.125 h 5.613282 l 5.285156,-13.125 z m 12.553711,13.359375 c 4.464843,0 7.640625,-2.824219 7.640625,-6.808594 0,-3.984375 -3.175782,-6.796875 -7.640625,-6.796875 -4.441407,0 -7.628907,2.8125 -7.628907,6.796875 0,3.984375 3.1875,6.808594 7.628907,6.808594 z m 0,-4.21875 c -1.195313,0 -2.132813,-0.890625 -2.132813,-2.589844 0,-1.710938 0.9375,-2.566406 2.132813,-2.566406 1.207031,0 2.144531,0.855468 2.144531,2.566406 0,1.699219 -0.9375,2.589844 -2.144531,2.589844 z m 14.501953,-7.722657 v -1.417968 h -5.167969 v 13.125 h 5.425781 v -5.835938 c 0,-2.085937 1.160157,-2.824219 2.789063,-2.824219 0.386719,0 0.714844,0.02344 1.195312,0.09375 v -4.804687 c -1.816406,0 -3.28125,0.550781 -4.242187,1.664062 z m 14.906252,-1.664062 c -1.53516,0 -2.92969,0.503906 -3.96094,1.535156 v -1.289062 h -5.167968 v 13.125 h 5.425778 v -6.164063 c 0,-1.945312 0.9375,-2.648437 2.03907,-2.648437 0.98437,0 1.61718,0.632812 1.61718,2.261718 v 6.550782 h 5.41407 v -7.488282 c 0,-4.125 -2.34375,-5.882812 -5.36719,-5.882812 z m 21.92578,6.796875 c 0,-4.441406 -3.32813,-6.796875 -7.21875,-6.796875 -4.25391,0 -7.44141,2.8125 -7.44141,6.796875 0,3.914062 3.11719,6.808594 7.94532,6.808594 2.61328,0 4.46484,-0.714844 5.73046,-2.109375 L 126.1702,22.27872 c -0.86719,0.644532 -1.53516,0.949219 -2.74219,0.949219 -1.33594,0 -2.25,-0.527344 -2.63672,-1.535156 h 9.11719 c 0.0234,-0.375 0.0703,-0.878906 0.0703,-1.265625 z m -7.17188,-3.09375 c 1.10157,0 1.89844,0.644531 2.10938,1.746094 h -4.21875 c 0.21094,-1.101563 0.98437,-1.746094 2.10937,-1.746094 z m 24.84082,-3.703125 c -1.4414,0 -2.54296,0.363281 -3.33984,1.136719 V 9.1888766 h -5.42578 V 27.001377 h 5.16797 v -1.078125 c 0.78515,0.890625 1.96875,1.3125 3.59765,1.3125 3.4336,0 6.33985,-2.589844 6.33985,-6.808594 0,-4.230469 -2.90625,-6.796875 -6.33985,-6.796875 z m -1.30078,9.386719 c -1.19531,0 -2.13281,-0.890625 -2.13281,-2.589844 0,-1.710938 0.9375,-2.566406 2.13281,-2.566406 1.20703,0 2.14453,0.855468 2.14453,2.566406 0,1.699219 -0.9375,2.589844 -2.14453,2.589844 z m 23.30274,-2.589844 c 0,-4.441406 -3.32813,-6.796875 -7.21875,-6.796875 -4.25391,0 -7.44141,2.8125 -7.44141,6.796875 0,3.914062 3.11719,6.808594 7.94531,6.808594 2.61328,0 4.46485,-0.714844 5.73047,-2.109375 l -2.82422,-2.847657 c -0.86718,0.644532 -1.53515,0.949219 -2.74218,0.949219 -1.33594,0 -2.25,-0.527344 -2.63672,-1.535156 h 9.11718 c 0.0234,-0.375 0.0703,-0.878906 0.0703,-1.265625 z m -7.17188,-3.09375 c 1.10156,0 1.89844,0.644531 2.10938,1.746094 h -4.21875 c 0.21093,-1.101563 0.98437,-1.746094 2.10937,-1.746094 z m 18.37793,-3.457031 v 1.488281 c -0.80859,-1.183594 -2.08594,-1.734375 -3.8789,-1.734375 -3.33985,0 -6.31641,2.425781 -6.31641,6.316406 0,3.890625 2.97656,6.339844 6.31641,6.339844 1.60546,0 2.80078,-0.457031 3.62109,-1.394531 v 0.234375 c 0,1.757812 -0.89063,2.742187 -3.11719,2.742187 -1.41797,0 -3.17578,-0.503906 -4.20703,-1.300781 l -1.81641,3.703125 c 1.62891,1.078125 3.98438,1.628906 6.57422,1.628906 5.01563,0 7.99219,-2.425781 7.99219,-7.511719 V 13.876377 Z m -2.4375,8.179687 c -1.27734,0 -2.26172,-0.84375 -2.26172,-2.109375 0,-1.277344 0.98438,-2.085937 2.26172,-2.085937 1.26563,0 2.22656,0.808593 2.22656,2.085937 0,1.265625 -0.96093,2.109375 -2.22656,2.109375 z m 12.71778,-9.234375 c 1.99218,0 3.25781,-1.207031 3.25781,-2.8593749 0,-1.5585938 -1.26563,-2.6601563 -3.25781,-2.6601563 -1.99219,0 -3.26954,1.1953125 -3.26954,2.7539062 0,1.558594 1.27735,2.765625 3.26954,2.765625 z m -2.71875,14.179688 h 5.42578 v -13.125 h -5.42578 z m 16.95117,-13.371094 c -1.53516,0 -2.92969,0.503906 -3.96094,1.535156 v -1.289062 h -5.16797 v 13.125 h 5.42578 v -6.164063 c 0,-1.945312 0.9375,-2.648437 2.03906,-2.648437 0.98438,0 1.61719,0.632812 1.61719,2.261718 v 6.550782 h 5.41406 v -7.488282 c 0,-4.125 -2.34375,-5.882812 -5.36718,-5.882812 z m 16.84863,0 c -1.53516,0 -2.92969,0.503906 -3.96094,1.535156 v -1.289062 h -5.16797 v 13.125 h 5.42579 v -6.164063 c 0,-1.945312 0.9375,-2.648437 2.03906,-2.648437 0.98437,0 1.61719,0.632812 1.61719,2.261718 v 6.550782 h 5.41406 v -7.488282 c 0,-4.125 -2.34375,-5.882812 -5.36719,-5.882812 z m 21.92871,6.796875 c 0,-4.441406 -3.32812,-6.796875 -7.21875,-6.796875 -4.25391,0 -7.44141,2.8125 -7.44141,6.796875 0,3.914062 3.11719,6.808594 7.94532,6.808594 2.61328,0 4.46484,-0.714844 5.73047,-2.109375 l -2.82422,-2.847657 c -0.86719,0.644532 -1.53516,0.949219 -2.74219,0.949219 -1.33594,0 -2.25,-0.527344 -2.63672,-1.535156 h 9.11719 c 0.0234,-0.375 0.0703,-0.878906 0.0703,-1.265625 z m -7.17187,-3.09375 c 1.10156,0 1.89843,0.644531 2.10937,1.746094 h -4.21875 c 0.21094,-1.101563 0.98438,-1.746094 2.10938,-1.746094 z m 18.00293,-3.703125 c -1.53516,0 -2.92969,0.503906 -3.96094,1.535156 v -1.289062 h -5.16797 v 13.125 h 5.42578 v -6.164063 c 0,-1.945312 0.9375,-2.648437 2.03906,-2.648437 0.98438,0 1.61719,0.632812 1.61719,2.261718 v 6.550782 h 5.41406 v -7.488282 c 0,-4.125 -2.34375,-5.882812 -5.36718,-5.882812 z m 10.16894,13.605469 c 1.80469,0 3.17578,-1.289063 3.17578,-3.117188 0,-1.839844 -1.37109,-3.070312 -3.17578,-3.070312 -1.79297,0 -3.16406,1.230468 -3.16406,3.070312 0,1.828125 1.37109,3.117188 3.16406,3.117188 z m 0,0"
         style="fill:#005b91;fill-opacity:1;fill-rule:nonzero;stroke:none"
         aria-label="Jetzt handeln statt  später &#10;von vorne beginnen."
         transform="matrix(1.3333333,0,0,1.3333333,26.456667,273.16613)"
         id="path165" />
    </g>
  </g>
</svg>
