<?xml version="1.0" encoding="UTF-8" standalone="no"?>
<!-- Created with Inkscape (http://www.inkscape.org/) -->

<svg
   version="1.1"
   id="svg1"
   width="270.34375"
   height="218.05469"
   viewBox="0 0 270.34375 218.05469"
   xmlns="http://www.w3.org/2000/svg"
   xmlns:svg="http://www.w3.org/2000/svg">
  <defs
     id="defs1">
    <clipPath
       clipPathUnits="userSpaceOnUse"
       id="clipPath63">
      <path
         d="M 0,793.70133 H 559.37067 V 0 H 0 Z"
         id="path63" />
    </clipPath>
  </defs>
  <g
     id="g1"
     transform="translate(-266.22656,-444.80859)">
    <g
       id="g62"
       clip-path="url(#clipPath63)">
      <path
         d="m 33.691959,2.3098266 c 27.082032,0 41.625,-13.5351566 41.625,-41.1914066 v -61.92187 H 7.4888344 v 25.64062 H 41.766178 v 38.296875 c 0,8.214844 -3.890625,12.527344 -10.945312,12.527344 -5.625,0 -10.664063,-3.304687 -15.984375,-9.9375 L -3.4564781,-12.666736 C 4.8989906,-2.8815797 18.000553,2.3098266 33.691959,2.3098266 Z M 164.1568,0.00123281 h 35.14453 L 155.22712,-100.80345 H 121.82868 L 77.766178,0.00123281 h 34.558592 l 6.76172,-17.56640581 h 38.30859 z m -35.70703,-42.04687481 9.78516,-25.347656 9.79687,25.347656 z m 0,0"
         style="fill:#005b91;fill-opacity:1;fill-rule:nonzero;stroke:none"
         aria-label="JA"
         transform="matrix(1.3333333,0,0,1.3333333,270.8352,579.2132)"
         id="path61" />
      <path
         d="m 7.5572703,-3.9616516 5.4257817,-6.0468754 v -3.117187 H 0.91273906 v 3.9609374 H 6.1393016 l -5.42578129,6.046875 V -7.140625e-4 H 13.240864 V -3.9616516 Z M 23.805317,-13.125714 v 6.1640624 c 0,1.9453125 -0.914062,2.6367188 -1.839844,2.6367188 -1.066406,0 -1.710937,-0.6210938 -1.710937,-2.4960938 v -6.3046874 h -5.425781 v 7.2421874 c 0,4.2773438 2.378906,6.11718754 5.519531,6.11718754 1.417969,0 2.742187,-0.46875 3.726562,-1.47656254 v 1.2421875375 h 5.15625 V -13.125714 Z m 12.990235,1.417969 v -1.417969 H 31.627583 V -7.140625e-4 h 5.425781 V -5.8366516 c 0,-2.0859375 1.160156,-2.8242187 2.789063,-2.8242187 0.386718,0 0.714843,0.023437 1.195312,0.09375 v -4.8046877 c -1.816406,0 -3.28125,0.550781 -4.242187,1.664063 z M 56.204731,0.38600469 c 5.214844,0 7.828125,-2.58984379 7.828125,-5.67187499 0,-6.1874997 -9.292968,-4.5117188 -9.292968,-6.5273437 0,-0.574219 0.527343,-1.054688 2.191406,-1.054688 1.464844,0 3.023437,0.410157 4.675781,1.253907 l 1.699219,-4.101563 c -1.746094,-0.984375 -4.078125,-1.464844 -6.328125,-1.464844 -5.214844,0 -7.828125,2.542969 -7.828125,5.660157 0,6.2578122 9.292969,4.5585934 9.292969,6.6679684 0,0.5742188 -0.574219,0.9140625 -2.191407,0.9140625 -1.839843,0 -3.960937,-0.5976562 -5.542968,-1.5351562 l -1.816407,4.125 c 1.675782,1.03124999 4.511719,1.73437499 7.3125,1.73437499 z M 71.421528,-13.371808 c -2.039062,0 -4.371094,0.527344 -5.90625,1.488281 l 1.734375,3.5742192 c 0.867188,-0.6445313 2.179688,-1.03125 3.363281,-1.03125 1.535157,0 2.296875,0.5273437 2.460938,1.5351562 h -2.179688 c -4.078125,0 -6,1.4179688 -6,3.9609375 0,2.2617188 1.652344,4.07812504 4.875,4.07812504 1.851563,0 3.09375,-0.64453125 3.714844,-1.95703124 v 1.7226562375 h 5.039063 V -7.0554016 c 0,-4.3710934 -2.589844,-6.3164064 -7.101563,-6.3164064 z m -0.02344,10.3476564 c -0.820313,0 -1.289063,-0.4570312 -1.289063,-1.0546875 0,-0.7265625 0.503906,-1.1015625 1.652344,-1.1015625 h 1.347656 v 0.9023438 c -0.292969,0.8671875 -0.960937,1.2539062 -1.710937,1.2539062 z M 90.004536,-13.371808 c -1.535156,0 -2.929688,0.503906 -3.960938,1.535156 v -1.289062 H 80.87563 V -7.140625e-4 h 5.425781 V -6.1647766 c 0,-1.9453125 0.9375,-2.6484375 2.039062,-2.6484375 0.984375,0 1.617188,0.6328125 1.617188,2.2617188 v 6.5507812375 h 5.414062 V -7.4889953 c 0,-4.1249997 -2.34375,-5.8828127 -5.367187,-5.8828127 z m 10.438474,-0.808594 c 1.99219,0 3.25782,-1.207031 3.25782,-2.859375 0,-1.558593 -1.26563,-2.660156 -3.25782,-2.660156 -1.992185,0 -3.269529,1.195313 -3.269529,2.753906 0,1.558594 1.277344,2.765625 3.269529,2.765625 z M 97.724263,-7.140625e-4 h 5.425777 V -13.125714 H 97.724263 Z M 119.51528,-6.5749328 c 0,-4.4414062 -3.32813,-6.7968752 -7.21875,-6.7968752 -4.25391,0 -7.44141,2.8125 -7.44141,6.7968752 0,3.9140625 3.11719,6.80859374 7.94531,6.80859374 2.61329,0 4.46485,-0.71484375 5.73047,-2.10937504 l -2.82422,-2.8476562 c -0.86718,0.6445312 -1.53515,0.9492187 -2.74218,0.9492187 -1.33594,0 -2.25,-0.5273437 -2.63672,-1.5351562 h 9.11719 c 0.0234,-0.375 0.0703,-0.8789063 0.0703,-1.265625 z m -7.17188,-3.09375 c 1.10157,0 1.89844,0.6445312 2.10938,1.7460937 h -4.21875 c 0.21094,-1.1015625 0.98437,-1.7460937 2.10937,-1.7460937 z m 14.04493,-2.0390622 v -1.417969 h -5.16797 V -7.140625e-4 h 5.42578 V -5.8366516 c 0,-2.0859375 1.16015,-2.8242187 2.78906,-2.8242187 0.38672,0 0.71484,0.023437 1.19531,0.09375 v -4.8046877 c -1.8164,0 -3.28125,0.550781 -4.24218,1.664063 z m 14.7041,-1.417969 v 6.1640624 c 0,1.9453125 -0.91407,2.6367188 -1.83985,2.6367188 -1.0664,0 -1.71093,-0.6210938 -1.71093,-2.4960938 v -6.3046874 h -5.42579 v 7.2421874 c 0,4.2773438 2.37891,6.11718754 5.51954,6.11718754 1.41796,0 2.74218,-0.46875 3.72656,-1.47656254 v 1.2421875375 h 5.15625 V -13.125714 Z m 16.95117,-0.246094 c -1.53516,0 -2.92969,0.503906 -3.96094,1.535156 v -1.289062 h -5.16797 V -7.140625e-4 h 5.42578 V -6.1647766 c 0,-1.9453125 0.9375,-2.6484375 2.03907,-2.6484375 0.98437,0 1.61718,0.6328125 1.61718,2.2617188 v 6.5507812375 h 5.41407 V -7.4889953 c 0,-4.1249997 -2.34375,-5.8828127 -5.36719,-5.8828127 z m 17.46094,0.246094 v 1.488281 c -0.8086,-1.183594 -2.08594,-1.734375 -3.87891,-1.734375 -3.33984,0 -6.31641,2.425781 -6.31641,6.3164064 0,3.890625 2.97657,6.33984379 6.31641,6.33984379 1.60547,0 2.80078,-0.45703129 3.62109,-1.39453129 v 0.234375 c 0,1.75781254 -0.89062,2.74218754 -3.11718,2.74218754 -1.41797,0 -3.17579,-0.50390625 -4.20704,-1.30078125 l -1.8164,3.70312501 c 1.6289,1.078125 3.98437,1.6289062 6.57422,1.6289062 5.01562,0 7.99218,-2.4257812 7.99218,-7.5117187 V -13.125714 Z m -2.4375,8.1796874 c -1.27735,0 -2.26172,-0.84375 -2.26172,-2.109375 0,-1.2773437 0.98437,-2.0859375 2.26172,-2.0859375 1.26562,0 2.22656,0.8085938 2.22656,2.0859375 0,1.265625 -0.96094,2.109375 -2.22656,2.109375 z M 18.356098,13.874286 v 6.164062 c 0,1.945313 -0.914062,2.636719 -1.839843,2.636719 -1.066407,0 -1.710938,-0.621094 -1.710938,-2.496094 V 13.874286 H 9.3795359 v 7.242187 c 0,4.277344 2.3789061,6.117188 5.5195311,6.117188 1.417969,0 2.742188,-0.46875 3.726563,-1.476563 v 1.242188 h 5.15625 v -13.125 z M 35.30727,13.628192 c -1.535156,0 -2.929687,0.503906 -3.960937,1.535156 v -1.289062 h -5.167969 v 13.125 h 5.425781 v -6.164063 c 0,-1.945312 0.9375,-2.648437 2.039063,-2.648437 0.984375,0 1.617187,0.632812 1.617187,2.261719 v 6.550781 h 5.414063 v -7.488281 c 0,-4.125 -2.34375,-5.882813 -5.367188,-5.882813 z m 12.864258,13.605469 c 4.558594,0 6.785156,-2.0625 6.785156,-4.429688 0,-5.261718 -7.535156,-3.480468 -7.535156,-4.851562 0,-0.316406 0.386719,-0.621094 1.78125,-0.621094 1.101563,0 2.449219,0.210938 3.785156,0.960938 l 1.488282,-3.585938 c -1.382813,-0.714844 -3.433594,-1.078125 -5.34375,-1.078125 -4.417969,0 -6.726563,2.015625 -6.726563,4.488281 0,5.261719 7.558594,3.457032 7.558594,4.804688 0,0.386719 -0.351563,0.621094 -1.675781,0.621094 -1.558594,0 -3.339844,-0.433594 -4.582032,-1.171875 l -1.488281,3.574218 c 1.335938,0.761719 3.691406,1.289063 5.953125,1.289063 z M 70.55727,20.425067 c 0,-4.441406 -3.328125,-6.796875 -7.21875,-6.796875 -4.253906,0 -7.441406,2.8125 -7.441406,6.796875 0,3.914063 3.117188,6.808594 7.945313,6.808594 2.613281,0 4.464843,-0.714844 5.730468,-2.109375 L 66.748677,22.27663 c -0.867188,0.644531 -1.535157,0.949218 -2.742188,0.949218 -1.335937,0 -2.25,-0.527343 -2.636719,-1.535156 h 9.117188 c 0.02344,-0.375 0.07031,-0.878906 0.07031,-1.265625 z m -7.171875,-3.09375 c 1.101563,0 1.898438,0.644531 2.109375,1.746094 h -4.21875 c 0.210938,-1.101563 0.984375,-1.746094 2.109375,-1.746094 z m 14.041993,-2.039062 v -1.417969 h -5.167969 v 13.125 H 77.6852 v -5.835938 c 0,-2.085937 1.160156,-2.824218 2.789063,-2.824218 0.386718,0 0.714843,0.02344 1.195312,0.09375 v -4.804688 c -1.816406,0 -3.28125,0.550781 -4.242187,1.664063 z m 19.625976,5.132812 c 0,-4.441406 -3.328125,-6.796875 -7.21875,-6.796875 -4.253906,0 -7.441406,2.8125 -7.441406,6.796875 0,3.914063 3.117187,6.808594 7.945312,6.808594 2.613282,0 4.464844,-0.714844 5.730469,-2.109375 L 93.24477,22.27663 c -0.867187,0.644531 -1.535156,0.949218 -2.742187,0.949218 -1.335938,0 -2.25,-0.527343 -2.636719,-1.535156 h 9.117188 c 0.02344,-0.375 0.07031,-0.878906 0.07031,-1.265625 z m -7.171875,-3.09375 c 1.101563,0 1.898438,0.644531 2.109375,1.746094 h -4.21875 c 0.210938,-1.101563 0.984375,-1.746094 2.109375,-1.746094 z m 14.041991,-2.039062 v -1.417969 h -5.167967 v 13.125 h 5.425777 v -5.835938 c 0,-2.085937 1.16016,-2.824218 2.78907,-2.824218 0.38672,0 0.71484,0.02344 1.19531,0.09375 v -4.804688 c -1.81641,0 -3.28125,0.550781 -4.24219,1.664063 z m 26.59277,2.917968 c 1.53516,-0.761718 2.32032,-2.0625 2.32032,-3.621093 0,-2.542969 -2.15625,-4.394532 -6.78516,-4.394532 h -8.97656 v 16.804688 h 9.45703 c 4.62891,0 7.10156,-1.699219 7.10156,-4.628906 0,-1.992188 -1.14844,-3.433594 -3.11719,-4.160157 z m -5.23828,-4.054687 c 1.27735,0 1.85157,0.433594 1.85157,1.253906 0,0.808594 -0.57422,1.242188 -1.85157,1.242188 h -2.63672 v -2.496094 z m 0.77344,8.882812 h -3.41016 V 20.40163 h 3.41016 c 1.24219,0 1.86328,0.457031 1.86328,1.3125 0,0.867187 -0.62109,1.324218 -1.86328,1.324218 z m 15.28125,-9.410156 c -2.03906,0 -4.37109,0.527344 -5.90625,1.488281 l 1.73438,3.574219 c 0.86718,-0.644531 2.17968,-1.03125 3.36328,-1.03125 1.53515,0 2.29687,0.527344 2.46093,1.535156 h -2.17968 c -4.07813,0 -6,1.417969 -6,3.960938 0,2.261719 1.65234,4.078125 4.875,4.078125 1.85156,0 3.09375,-0.644531 3.71484,-1.957031 v 1.722656 h 5.03906 v -7.054688 c 0,-4.371093 -2.58984,-6.316406 -7.10156,-6.316406 z m -0.0234,10.347656 c -0.82031,0 -1.28906,-0.457031 -1.28906,-1.054687 0,-0.726563 0.50391,-1.101563 1.65234,-1.101563 h 1.34766 v 0.902344 c -0.29297,0.867188 -0.96094,1.253906 -1.71094,1.253906 z M 160.13247,9.1867859 v 5.5781251 c -0.79688,-0.773438 -1.89844,-1.136719 -3.33985,-1.136719 -3.43359,0 -6.33984,2.566406 -6.33984,6.796875 0,4.21875 2.90625,6.808594 6.33984,6.808594 1.62891,0 2.8125,-0.421875 3.59766,-1.3125 v 1.078125 h 5.15625 V 9.1867859 Z M 158.0934,23.014911 c -1.20703,0 -2.14453,-0.890625 -2.14453,-2.589844 0,-1.710937 0.9375,-2.566406 2.14453,-2.566406 1.19532,0 2.13282,0.855469 2.13282,2.566406 0,1.699219 -0.9375,2.589844 -2.13282,2.589844 z m 12.57129,-10.195313 c 1.99219,0 3.25781,-1.207031 3.25781,-2.8593746 0,-1.5585937 -1.26562,-2.6601562 -3.25781,-2.6601562 -1.99219,0 -3.26953,1.1953125 -3.26953,2.7539058 0,1.558594 1.27734,2.765625 3.26953,2.765625 z m -2.71875,14.179688 h 5.42578 v -13.125 h -5.42578 z m 10.27442,0.234375 c 1.80468,0 3.17578,-1.289063 3.17578,-3.117188 0,-1.839843 -1.3711,-3.070312 -3.17578,-3.070312 -1.79297,0 -3.16407,1.230469 -3.16407,3.070312 0,1.828125 1.3711,3.117188 3.16407,3.117188 z m 0,0"
         style="fill:#005b91;fill-opacity:1;fill-rule:nonzero;stroke:none"
         aria-label="zur Sanierung   &#10; unserer Badi."
         transform="matrix(1.3333333,0,0,1.3333333,290.41973,626.55173)"
         id="path62" />
    </g>
  </g>
</svg>
