<?xml version="1.0" encoding="UTF-8" standalone="no"?>
<!-- Created with Inkscape (http://www.inkscape.org/) -->

<svg
   version="1.1"
   id="svg1"
   width="130.20398"
   height="18.908325"
   viewBox="0 0 130.20398 18.908325"
   xmlns="http://www.w3.org/2000/svg"
   xmlns:svg="http://www.w3.org/2000/svg">
  <defs
     id="defs1">
    <clipPath
       clipPathUnits="userSpaceOnUse"
       id="clipPath102">
      <path
         d="M -0.1385975,-5.9758001 H 97.865405 V 8.5662002 H -0.1385975 Z"
         id="path102" />
    </clipPath>
    <clipPath
       clipPathUnits="userSpaceOnUse"
       id="clipPath104">
      <path
         d="M 0,793.70133 H 559.37067 V 0 H 0 Z"
         id="path104" />
    </clipPath>
  </defs>
  <g
     id="g1"
     transform="translate(-303.28934,-729.39197)">
    <g
       id="group-MC1">
      <g
         id="g103"
         clip-path="url(#clipPath104)">
        <path
           d="m 0,0 c 0.601,3.079 2.85,5.127 5.7,5.127 2.305,0 3.766,-0.974 4.067,-2.821 L 7.533,2.062 C 7.189,2.807 6.559,3.179 5.6,3.179 3.91,3.179 2.621,1.848 2.205,-0.315 1.833,-2.334 2.621,-3.58 4.253,-3.58 c 1.504,0 2.564,0.802 2.979,2.349 H 4.74 L 5.055,0.515 H 9.838 C 9.81,0.158 9.753,-0.243 9.681,-0.616 9.065,-3.695 7.032,-5.514 4.067,-5.514 1.002,-5.514 -0.645,-3.322 0,0"
           style="fill:#000000;fill-opacity:1;fill-rule:nonzero;stroke:none"
           transform="matrix(1.3333333,0,0,-1.3333333,303.47413,740.8136)"
           clip-path="url(#clipPath102)"
           id="path103" />
      </g>
      <path
         id="path105"
         d="M 0,0 H 2.177 L 1.905,-1.146 c 0.444,0.759 1.389,1.432 2.979,1.232 L 4.397,-1.919 C 2.835,-1.633 1.647,-2.492 1.246,-4.411 L 0.43,-8.192 h -2.177 z"
         style="fill:#000000;fill-opacity:1;fill-rule:nonzero;stroke:none"
         transform="matrix(1.3333333,0,0,-1.3333333,319.49507,737.09013)" />
      <path
         id="path106"
         d="M 0,0 0.931,4.425 H 3.108 L 2.163,0.014 c -0.301,-1.432 0.1,-2.091 1.317,-2.091 1.275,0 1.933,0.774 2.292,2.406 L 6.631,4.425 H 8.808 L 7.061,-3.766 H 4.912 l 0.33,1.389 C 4.669,-3.294 3.652,-3.938 2.506,-3.938 0.215,-3.938 -0.559,-2.578 0,0"
         style="fill:#000000;fill-opacity:1;fill-rule:nonzero;stroke:none"
         transform="matrix(1.3333333,0,0,-1.3333333,326.0636,742.99027)" />
      <path
         id="path107"
         d="m 0,0 h 2.163 l -0.33,-1.389 c 0.573,0.902 1.59,1.547 2.735,1.547 2.278,0 3.065,-1.347 2.507,-3.939 L 6.144,-8.192 H 3.967 l 0.931,4.397 C 5.199,-2.377 4.783,-1.69 3.58,-1.69 2.306,-1.69 1.661,-2.463 1.303,-4.11 L 0.43,-8.192 h -2.177 z"
         style="fill:#000000;fill-opacity:1;fill-rule:nonzero;stroke:none"
         transform="matrix(1.3333333,0,0,-1.3333333,340.32787,737.09013)" />
      <path
         id="path108"
         d="M 0,0 H 2.191 L -0.115,-10.855 H -2.306 Z"
         style="fill:#000000;fill-opacity:1;fill-rule:nonzero;stroke:none"
         transform="matrix(1.3333333,0,0,-1.3333333,353.84707,733.5384)" />
      <path
         id="path109"
         d="m 0,0 c 0.143,0.702 0.73,1.017 1.375,1.017 0.716,0 1.217,-0.415 1.074,-1.189 C 2.32,-0.874 1.719,-1.189 1.074,-1.189 0.358,-1.189 -0.158,-0.773 0,0 m -0.286,-2.191 h 2.191 l -1.748,-8.192 h -2.191 z"
         style="fill:#000000;fill-opacity:1;fill-rule:nonzero;stroke:none"
         transform="matrix(1.3333333,0,0,-1.3333333,358.85013,734.16853)" />
      <path
         id="path110"
         d="m 0,0 c 0.244,1.389 -0.387,2.291 -1.633,2.291 -1.331,0 -2.276,-0.988 -2.577,-2.577 -0.287,-1.433 0.372,-2.335 1.618,-2.335 1.346,0 2.306,1.003 2.592,2.621 M -4.611,-2.721 -4.983,-4.239 H -7.16 l 2.305,10.841 h 2.177 L -3.566,2.549 c 0.63,1.06 1.69,1.547 2.764,1.547 2.12,0 3.466,-1.604 2.893,-4.44 -0.559,-2.663 -2.363,-4.095 -4.296,-4.095 -1.246,0 -2.234,0.658 -2.406,1.718"
         style="fill:#000000;fill-opacity:1;fill-rule:nonzero;stroke:none"
         transform="matrix(1.3333333,0,0,-1.3333333,371.12787,742.34107)" />
      <path
         id="path111"
         d="M 0,0 C 0.115,1.06 -0.358,1.79 -1.59,1.79 -2.85,1.79 -3.724,1.146 -4.053,0 Z m -6.387,-0.745 c 0.443,2.421 2.305,4.068 4.74,4.068 2.778,0 4.153,-1.791 3.38,-4.741 H -4.34 c -0.2,-1.274 0.444,-2.119 1.676,-2.119 1.002,0 1.661,0.372 2.134,1.145 l 1.948,-0.429 c -0.874,-1.59 -2.277,-2.363 -4.182,-2.363 -2.735,0 -4.139,1.704 -3.623,4.439"
         style="fill:#000000;fill-opacity:1;fill-rule:nonzero;stroke:none"
         transform="matrix(1.3333333,0,0,-1.3333333,384.2084,741.31)" />
      <path
         id="path112"
         d="M 0,0 H 2.177 L 1.905,-1.146 c 0.444,0.759 1.389,1.432 2.979,1.232 L 4.397,-1.919 C 2.835,-1.633 1.647,-2.492 1.246,-4.411 L 0.43,-8.192 h -2.177 z"
         style="fill:#000000;fill-opacity:1;fill-rule:nonzero;stroke:none"
         transform="matrix(1.3333333,0,0,-1.3333333,389.91787,737.09013)" />
      <path
         id="path113"
         d="m 0,0 c 0.272,1.389 -0.372,2.291 -1.633,2.291 -1.317,0 -2.277,-0.988 -2.563,-2.577 -0.258,-1.433 0.358,-2.335 1.632,-2.335 1.304,0 2.263,1.003 2.564,2.621 m -6.287,0.029 c 0.544,2.663 2.334,4.067 4.296,4.067 1.232,0 2.206,-0.616 2.421,-1.733 L 0.788,3.938 H 2.965 L 1.217,-4.239 h -2.162 l 0.329,1.418 c -0.644,-1.089 -1.69,-1.618 -2.778,-1.618 -2.134,0 -3.466,1.618 -2.893,4.468"
         style="fill:#000000;fill-opacity:1;fill-rule:nonzero;stroke:none"
         transform="matrix(1.3333333,0,0,-1.3333333,404.29667,742.34107)" />
      <path
         id="path114"
         d="M 0,0 H 2.191 L -0.114,-10.855 H -2.306 Z"
         style="fill:#000000;fill-opacity:1;fill-rule:nonzero;stroke:none"
         transform="matrix(1.3333333,0,0,-1.3333333,411.49533,733.5384)" />
      <path
         id="path115"
         d="M 0,0 C 0.115,1.06 -0.358,1.79 -1.59,1.79 -2.85,1.79 -3.724,1.146 -4.053,0 Z m -6.387,-0.745 c 0.443,2.421 2.305,4.068 4.74,4.068 2.778,0 4.153,-1.791 3.38,-4.741 H -4.34 c -0.2,-1.274 0.444,-2.119 1.676,-2.119 1.002,0 1.661,0.372 2.134,1.145 l 1.948,-0.429 c -0.874,-1.59 -2.277,-2.363 -4.182,-2.363 -2.735,0 -4.139,1.704 -3.623,4.439"
         style="fill:#000000;fill-opacity:1;fill-rule:nonzero;stroke:none"
         transform="matrix(1.3333333,0,0,-1.3333333,423.14347,741.31)" />
      <path
         id="path116"
         d="M 0,0 -0.318,0.384 2.48,2.43 2.527,2.373 Z m 0.827,3.292 c -1.224,0 -2.217,-0.993 -2.217,-2.217 0,-0.467 0.145,-0.9 0.393,-1.258 l -1.265,-1.049 0.315,-0.38 1.275,1.057 c 0.395,-0.363 0.92,-0.587 1.499,-0.587 1.053,0 1.933,0.736 2.158,1.72 l 0.58,2.714 z"
         style="fill:#8fbe07;fill-opacity:1;fill-rule:nonzero;stroke:none"
         transform="matrix(1.3333333,0,0,-1.3333333,332.89467,733.78133)" />
      <path
         id="path117"
         d="m 0,0 c 0,-1.341 -1.087,-2.429 -2.429,-2.429 -1.341,0 -2.428,1.088 -2.428,2.429 0,1.341 1.087,2.429 2.428,2.429 C -1.087,2.429 0,1.341 0,0"
         style="fill:#00a7df;fill-opacity:1;fill-rule:nonzero;stroke:none"
         transform="matrix(1.3333333,0,0,-1.3333333,433.49333,745.0616)" />
    </g>
  </g>
</svg>
