<?xml version="1.0" encoding="UTF-8" standalone="no"?>
<!-- Created with Inkscape (http://www.inkscape.org/) -->

<svg
   version="1.1"
   id="svg1"
   width="146.64987"
   height="41.130615"
   viewBox="0 0 146.64987 41.130615"
   xmlns="http://www.w3.org/2000/svg"
   xmlns:svg="http://www.w3.org/2000/svg">
  <defs
     id="defs1">
    <clipPath
       clipPathUnits="userSpaceOnUse"
       id="clipPath64">
      <path
         d="M -28.100601,-27.793898 H 81.887402 V 3.0541026 H -28.100601 Z"
         id="path64" />
    </clipPath>
    <clipPath
       clipPathUnits="userSpaceOnUse"
       id="clipPath66">
      <path
         d="M 0,793.70133 H 559.37067 V 0 H 0 Z"
         id="path66" />
    </clipPath>
  </defs>
  <g
     id="g1"
     transform="translate(-26.456785,-718.52137)">
    <g
       id="group-MC0">
      <g
         id="g65"
         clip-path="url(#clipPath66)">
        <path
           d="m 0,0 c 0.003,-0.001 0.006,-0.002 0.008,-0.003 0.047,-0.021 0.091,-0.042 0.135,-0.067 -1.91,1.039 -3.821,2.078 -5.731,3.117 -0.032,0.018 -0.064,0.034 -0.097,0.051 -0.012,0.005 -0.025,0.011 -0.037,0.016 -0.054,0.024 -0.107,0.047 -0.161,0.069 -0.022,0.008 -0.044,0.018 -0.065,0.026 -0.075,0.028 -0.154,0.052 -0.233,0.072 -0.001,0 -0.004,0.002 -0.006,0.002 -0.011,0.004 -0.024,0.005 -0.035,0.007 -0.065,0.016 -0.13,0.03 -0.197,0.04 -0.027,0.005 -0.055,0.008 -0.083,0.013 -0.054,0.006 -0.11,0.012 -0.166,0.017 -0.029,0.001 -0.06,0.004 -0.089,0.004 -0.058,0.003 -0.117,0.003 -0.175,0.001 -0.027,0 -0.054,0 -0.082,-0.001 C -7.1,3.36 -7.187,3.352 -7.274,3.339 L -24.887,0.864 C -24.985,0.85 -25.081,0.83 -25.178,0.808 -25.204,0.801 -25.23,0.794 -25.256,0.787 -25.331,0.767 -25.403,0.744 -25.476,0.72 -25.5,0.712 -25.524,0.704 -25.547,0.696 c -0.087,-0.033 -0.174,-0.07 -0.259,-0.108 -0.004,-0.002 -0.008,-0.004 -0.013,-0.007 -0.025,-0.012 -0.048,-0.026 -0.072,-0.039 -0.07,-0.033 -0.138,-0.069 -0.205,-0.109 -0.033,-0.02 -0.065,-0.042 -0.099,-0.063 -0.043,-0.026 -0.086,-0.051 -0.126,-0.079 -0.01,-0.007 -0.019,-0.016 -0.028,-0.023 -0.117,-0.082 -0.23,-0.172 -0.338,-0.266 -0.006,-0.007 -0.013,-0.012 -0.02,-0.017 -0.017,-0.015 -0.033,-0.033 -0.049,-0.05 -0.081,-0.074 -0.156,-0.152 -0.23,-0.231 -0.014,-0.016 -0.032,-0.031 -0.046,-0.048 -0.013,-0.014 -0.023,-0.03 -0.036,-0.045 -0.079,-0.091 -0.154,-0.187 -0.225,-0.286 -0.009,-0.011 -0.019,-0.022 -0.027,-0.035 -0.003,-0.002 -0.004,-0.004 -0.005,-0.007 -0.083,-0.12 -0.159,-0.245 -0.23,-0.373 -0.008,-0.014 -0.018,-0.028 -0.025,-0.041 -0.021,-0.039 -0.04,-0.08 -0.059,-0.12 -0.018,-0.035 -0.036,-0.07 -0.053,-0.104 -0.032,-0.073 -0.063,-0.146 -0.092,-0.221 -0.012,-0.026 -0.023,-0.051 -0.032,-0.077 -0.002,-0.005 -0.004,-0.009 -0.006,-0.014 -0.021,-0.056 -0.038,-0.113 -0.055,-0.171 -0.015,-0.047 -0.032,-0.095 -0.045,-0.142 -0.018,-0.065 -0.031,-0.132 -0.048,-0.198 -0.008,-0.046 -0.022,-0.091 -0.031,-0.138 -0.013,-0.073 -0.021,-0.147 -0.031,-0.221 -0.004,-0.041 -0.012,-0.081 -0.016,-0.12 -0.011,-0.115 -0.016,-0.231 -0.017,-0.348 l -0.035,-19.01 c -0.003,-1.214 0.589,-2.202 1.477,-2.683 1.909,-1.04 3.821,-2.079 5.73,-3.118 -0.011,0.006 -0.021,0.014 -0.032,0.02 0.497,-0.279 1.089,-0.401 1.721,-0.312 l 17.613,2.474 c 1.743,0.246 3.174,1.986 3.177,3.868 L 1.62,-2.756 C 1.622,-1.479 0.967,-0.452 0,0"
           style="fill:#e8160c;fill-opacity:1;fill-rule:nonzero;stroke:none"
           transform="matrix(1.3333333,0,0,-1.3333333,63.923467,722.59347)"
           clip-path="url(#clipPath64)"
           id="path65" />
      </g>
      <path
         id="path67"
         d="m 0,0 c -2.104,0 -3.051,1.052 -3.051,2.42 l 0.105,0.105 h 1.262 L -1.578,2.42 c 0,-0.736 0.42,-1.156 1.682,-1.156 0.948,0 1.474,0.314 1.474,0.946 0,0.736 -0.421,0.946 -1.894,1.157 -1.474,0.21 -2.63,0.736 -2.63,2.211 0,1.05 0.842,1.998 2.841,1.998 1.999,0 2.84,-0.948 2.84,-2.209 L 2.63,5.261 H 1.367 L 1.262,5.367 c 0,0.63 -0.315,0.946 -1.472,0.946 -0.948,0 -1.263,-0.316 -1.263,-0.735 0,-0.632 0.421,-0.843 1.894,-1.053 C 1.894,4.314 3.051,3.683 3.051,2.21 3.051,1.052 2.209,0 0,0"
         style="fill:#ffffff;fill-opacity:1;fill-rule:nonzero;stroke:none"
         transform="matrix(1.3333333,0,0,-1.3333333,36.696667,743.55227)" />
      <path
         id="path68"
         d="m 0,0 h -1.999 l -0.106,-0.104 v -1.684 l 0.106,-0.106 H 0 c 0.631,0 1.052,0.211 1.052,0.947 C 1.052,-0.21 0.631,0 0,0 M 0,-3.156 H -1.999 L -2.105,-3.262 V -5.997 L -2.21,-6.102 h -1.263 l -0.104,0.105 v 7.155 l 0.104,0.106 H 0 c 1.472,0 2.524,-0.738 2.524,-2.211 C 2.524,-2.42 1.472,-3.156 0,-3.156"
         style="fill:#ffffff;fill-opacity:1;fill-rule:nonzero;stroke:none"
         transform="matrix(1.3333333,0,0,-1.3333333,46.7948,735.2756)" />
      <path
         id="path69"
         d="m 0,0 c -0.038,0.44 -0.189,0.68 -0.516,0.837 -0.277,0.139 -0.73,0.176 -1.064,0.088 -0.403,-0.1 -0.635,-0.378 -0.635,-0.755 0,-0.227 0.094,-0.416 0.258,-0.516 0.17,-0.101 0.346,-0.158 0.874,-0.283 0.68,-0.151 0.888,-0.221 1.102,-0.347 0.333,-0.195 0.497,-0.484 0.497,-0.868 0,-0.39 -0.164,-0.717 -0.478,-0.95 -0.271,-0.201 -0.611,-0.29 -1.101,-0.29 -1.039,0 -1.674,0.542 -1.674,1.441 v 0.044 h 0.383 c 0.013,-0.358 0.082,-0.566 0.246,-0.755 0.227,-0.258 0.598,-0.397 1.075,-0.397 0.725,0 1.165,0.328 1.165,0.869 0,0.308 -0.157,0.529 -0.491,0.661 -0.182,0.082 -0.353,0.126 -0.925,0.258 -0.56,0.133 -0.749,0.201 -0.956,0.339 -0.233,0.165 -0.365,0.442 -0.365,0.769 0,0.717 0.56,1.157 1.466,1.157 0.944,0 1.485,-0.465 1.523,-1.302 z"
         style="fill:#040700;fill-opacity:1;fill-rule:nonzero;stroke:none"
         transform="matrix(1.3333333,0,0,-1.3333333,77.6132,734.67573)" />
      <path
         id="path70"
         d="m 0,0 c 0,-0.793 0.409,-1.29 1.07,-1.29 0.642,0 1.051,0.504 1.051,1.29 0,0.781 -0.416,1.297 -1.044,1.297 C 0.416,1.297 0,0.8 0,0 m 2.492,-0.006 c 0,-0.975 -0.554,-1.592 -1.429,-1.592 -0.874,0 -1.44,0.623 -1.44,1.598 0,0.982 0.566,1.605 1.46,1.605 0.855,0 1.409,-0.635 1.409,-1.611"
         style="fill:#040700;fill-opacity:1;fill-rule:nonzero;stroke:none"
         transform="matrix(1.3333333,0,0,-1.3333333,79.751333,736.64827)" />
      <path
         id="path71"
         d="m 0,0 -1.806,-2.215 -0.095,-0.107 c -0.037,-0.051 -0.068,-0.095 -0.106,-0.132 h 0.145 0.176 1.768 v -0.309 h -2.536 v 0.302 l 1.775,2.178 c 0.044,0.05 0.082,0.094 0.125,0.138 l 0.082,0.107 -0.113,-0.006 H -0.711 -2.322 V 0.264 H 0 Z"
         style="fill:#040700;fill-opacity:1;fill-rule:nonzero;stroke:none"
         transform="matrix(1.3333333,0,0,-1.3333333,86.974933,734.978)" />
      <path
         id="path72"
         d="m 66.375,41.28 h -0.371 v 3.027 h 0.371 z m 0,3.606 h -0.371 v 0.592 h 0.371 z"
         style="fill:#040700;fill-opacity:1;fill-rule:nonzero;stroke:none"
         transform="matrix(1.3333333,0,0,-1.3333333,0,793.70133)" />
      <path
         id="path73"
         d="M 0,0 C -0.12,-0.107 -0.208,-0.132 -0.837,-0.215 -1.171,-0.258 -1.391,-0.328 -1.53,-0.422 -1.655,-0.51 -1.743,-0.68 -1.743,-0.85 c 0,-0.352 0.283,-0.592 0.71,-0.592 0.599,0 1.033,0.397 1.033,0.944 z M 0.705,-1.636 C 0.604,-1.668 0.522,-1.681 0.409,-1.681 c -0.289,0 -0.391,0.145 -0.391,0.554 -0.276,-0.428 -0.622,-0.616 -1.144,-0.616 -0.617,0 -0.989,0.32 -0.989,0.861 0,0.398 0.202,0.681 0.598,0.825 0.214,0.081 0.239,0.081 1.038,0.163 C -0.113,0.145 0,0.233 0,0.491 c 0,0.465 -0.24,0.66 -0.793,0.66 -0.529,0 -0.774,-0.214 -0.824,-0.711 h -0.359 c 0.031,0.655 0.472,1.02 1.227,1.02 0.39,0 0.73,-0.114 0.925,-0.309 C 0.321,0.994 0.364,0.843 0.359,0.409 v -0.893 -0.46 c 0,-0.372 0.025,-0.428 0.207,-0.428 0.031,0 0.069,0.006 0.139,0.025 z"
         style="fill:#040700;fill-opacity:1;fill-rule:nonzero;stroke:none"
         transform="matrix(1.3333333,0,0,-1.3333333,92.4108,736.4544)" />
      <path
         id="path74"
         d="m 71.107,41.28 h -0.371 v 4.198 h 0.371 z"
         style="fill:#040700;fill-opacity:1;fill-rule:nonzero;stroke:none"
         transform="matrix(1.3333333,0,0,-1.3333333,0,793.70133)" />
      <path
         id="path75"
         d="m 0,0 c 0,-0.793 0.396,-1.296 1.033,-1.296 0.641,0 1.044,0.496 1.044,1.289 C 2.077,0.78 1.674,1.29 1.044,1.29 0.39,1.29 0,0.805 0,0 M 2.436,-1.517 H 2.089 v 0.604 C 1.876,-1.379 1.523,-1.605 1.001,-1.605 c -0.844,0 -1.372,0.617 -1.372,1.605 0,0.976 0.528,1.598 1.359,1.598 0.51,0 0.868,-0.214 1.076,-0.648 v 1.731 h 0.372 z"
         style="fill:#040700;fill-opacity:1;fill-rule:nonzero;stroke:none"
         transform="matrix(1.3333333,0,0,-1.3333333,96.453067,736.63907)" />
      <path
         id="path76"
         d="M 0,0 C -0.031,0.667 -0.403,1.077 -0.969,1.077 -1.535,1.077 -1.881,0.698 -1.964,0 Z m 0.34,-0.73 c -0.139,-0.699 -0.598,-1.089 -1.29,-1.089 -0.843,0 -1.391,0.617 -1.391,1.567 0,0.964 0.573,1.636 1.385,1.636 0.528,0 0.969,-0.295 1.183,-0.792 0.107,-0.246 0.15,-0.51 0.15,-0.9 h -2.346 c 0.019,-0.774 0.383,-1.202 1.025,-1.202 0.492,0 0.806,0.264 0.931,0.78 z"
         style="fill:#040700;fill-opacity:1;fill-rule:nonzero;stroke:none"
         transform="matrix(1.3333333,0,0,-1.3333333,103.96973,736.35427)" />
      <path
         id="path77"
         d="m 0,0 c 0.289,0.44 0.573,0.617 1.007,0.617 0.447,0 0.73,-0.189 0.875,-0.592 0.239,0.409 0.548,0.592 1.007,0.592 0.339,0 0.622,-0.126 0.793,-0.346 0.132,-0.177 0.176,-0.353 0.176,-0.687 V -2.498 H 3.486 v 1.982 c 0,0.264 -0.031,0.422 -0.1,0.535 C 3.273,0.189 3.052,0.296 2.788,0.296 2.455,0.296 2.184,0.138 2.052,-0.138 1.97,-0.296 1.945,-0.453 1.945,-0.755 V -2.498 H 1.574 v 1.976 c 0,0.245 -0.026,0.395 -0.082,0.509 C 1.391,0.176 1.171,0.296 0.907,0.296 0.567,0.296 0.271,0.113 0.138,-0.183 0.057,-0.346 0.025,-0.547 0.025,-0.83 V -2.498 H -0.346 V 0.528 H 0 Z"
         style="fill:#040700;fill-opacity:1;fill-rule:nonzero;stroke:none"
         transform="matrix(1.3333333,0,0,-1.3333333,106.066,735.33013)" />
      <path
         id="path78"
         d="m 0,0 c 0,-0.793 0.409,-1.29 1.07,-1.29 0.642,0 1.051,0.504 1.051,1.29 0,0.781 -0.416,1.297 -1.045,1.297 C 0.416,1.297 0,0.8 0,0 m 2.492,-0.006 c 0,-0.975 -0.554,-1.592 -1.429,-1.592 -0.874,0 -1.441,0.623 -1.441,1.598 0,0.982 0.567,1.605 1.461,1.605 0.855,0 1.409,-0.635 1.409,-1.611"
         style="fill:#040700;fill-opacity:1;fill-rule:nonzero;stroke:none"
         transform="matrix(1.3333333,0,0,-1.3333333,112.8444,736.64827)" />
      <path
         id="path79"
         d="M 0,0 1.384,-1.913 H 0.919 l -1.202,1.662 -0.605,-0.517 v -1.145 h -0.371 v 4.198 h 0.371 v -2.649 l 0.126,0.119 0.101,0.094 1.461,1.265 h 0.496 z"
         style="fill:#040700;fill-opacity:1;fill-rule:nonzero;stroke:none"
         transform="matrix(1.3333333,0,0,-1.3333333,119.00213,736.1112)" />
      <path
         id="path80"
         d="M 0,0 H -0.094 C -0.409,0 -0.679,-0.12 -0.868,-0.334 -1.076,-0.579 -1.132,-0.825 -1.132,-1.46 V -2.7 h -0.372 v 3.027 h 0.346 V -0.396 C -0.931,0.138 -0.566,0.384 0,0.371 Z"
         style="fill:#040700;fill-opacity:1;fill-rule:nonzero;stroke:none"
         transform="matrix(1.3333333,0,0,-1.3333333,123.77453,735.06173)" />
      <path
         id="path81"
         d="M 0,0 C -0.12,-0.107 -0.208,-0.132 -0.837,-0.215 -1.171,-0.258 -1.391,-0.328 -1.53,-0.422 -1.655,-0.51 -1.743,-0.68 -1.743,-0.85 c 0,-0.352 0.283,-0.592 0.71,-0.592 0.599,0 1.033,0.397 1.033,0.944 z M 0.705,-1.636 C 0.604,-1.668 0.522,-1.681 0.409,-1.681 c -0.289,0 -0.391,0.145 -0.391,0.554 -0.276,-0.428 -0.622,-0.616 -1.144,-0.616 -0.617,0 -0.989,0.32 -0.989,0.861 0,0.398 0.202,0.681 0.598,0.825 0.214,0.081 0.239,0.081 1.038,0.163 C -0.113,0.145 0,0.233 0,0.491 c 0,0.465 -0.24,0.66 -0.793,0.66 -0.529,0 -0.774,-0.214 -0.824,-0.711 h -0.359 c 0.031,0.655 0.472,1.02 1.227,1.02 0.39,0 0.73,-0.114 0.925,-0.309 C 0.321,0.994 0.364,0.843 0.359,0.409 v -0.893 -0.46 c 0,-0.372 0.025,-0.428 0.207,-0.428 0.031,0 0.069,0.006 0.139,0.025 z"
         style="fill:#040700;fill-opacity:1;fill-rule:nonzero;stroke:none"
         transform="matrix(1.3333333,0,0,-1.3333333,127.08853,736.4544)" />
      <path
         id="path82"
         d="m 0,0 h -0.629 v -1.913 c 0,-0.428 0.056,-0.504 0.384,-0.504 0.075,0 0.144,0.007 0.245,0.019 v -0.321 c -0.12,-0.011 -0.195,-0.018 -0.333,-0.018 -0.328,0 -0.51,0.075 -0.598,0.257 -0.057,0.114 -0.07,0.227 -0.07,0.756 V 0 H -1.53 v 0.308 h 0.529 V 1.24 h 0.372 V 0.308 H 0 Z"
         style="fill:#040700;fill-opacity:1;fill-rule:nonzero;stroke:none"
         transform="matrix(1.3333333,0,0,-1.3333333,130.40173,735.0372)" />
      <path
         id="path83"
         d="M 98.921,41.28 H 98.55 v 3.027 h 0.371 z m 0,3.606 H 98.55 v 0.592 h 0.371 z"
         style="fill:#040700;fill-opacity:1;fill-rule:nonzero;stroke:none"
         transform="matrix(1.3333333,0,0,-1.3333333,0,793.70133)" />
      <path
         id="path84"
         d="m 0,0 c -0.044,0.459 -0.289,0.655 -0.812,0.655 -0.453,0 -0.711,-0.189 -0.711,-0.51 0,-0.296 0.151,-0.397 0.868,-0.561 0.422,-0.094 0.624,-0.17 0.812,-0.289 0.195,-0.132 0.315,-0.353 0.315,-0.611 0,-0.553 -0.485,-0.924 -1.202,-0.924 -0.781,0 -1.227,0.383 -1.246,1.075 h 0.359 c 0.037,-0.522 0.321,-0.767 0.893,-0.767 0.504,0 0.83,0.233 0.83,0.585 0,0.302 -0.188,0.434 -0.83,0.592 -0.541,0.126 -0.66,0.169 -0.824,0.251 -0.214,0.12 -0.34,0.346 -0.34,0.611 0,0.528 0.421,0.856 1.101,0.856 0.416,0 0.743,-0.12 0.938,-0.353 C 0.289,0.453 0.346,0.296 0.364,0 Z"
         style="fill:#040700;fill-opacity:1;fill-rule:nonzero;stroke:none"
         transform="matrix(1.3333333,0,0,-1.3333333,135.57733,735.79173)" />
      <path
         id="path85"
         d="m 0,0 c -0.101,-0.737 -0.579,-1.171 -1.277,-1.171 -0.85,0 -1.398,0.617 -1.398,1.574 0,0.994 0.554,1.629 1.41,1.629 0.704,0 1.164,-0.384 1.246,-1.044 h -0.377 c -0.095,0.484 -0.39,0.737 -0.863,0.737 -0.635,0 -1.044,-0.504 -1.044,-1.298 0,-0.786 0.396,-1.289 1.013,-1.289 0.51,0 0.843,0.315 0.919,0.862 z"
         style="fill:#040700;fill-opacity:1;fill-rule:nonzero;stroke:none"
         transform="matrix(1.3333333,0,0,-1.3333333,140.64467,737.218)" />
      <path
         id="path86"
         d="m 0,0 c 0,-0.057 0,-0.057 -0.006,-0.359 0.201,0.428 0.56,0.655 1.05,0.655 0.41,0 0.731,-0.158 0.907,-0.447 0.113,-0.176 0.151,-0.371 0.151,-0.717 V -2.819 H 1.731 v 1.9 c 0,0.321 -0.038,0.485 -0.145,0.623 -0.132,0.17 -0.365,0.271 -0.636,0.271 -0.358,0 -0.661,-0.176 -0.812,-0.491 C 0.031,-0.724 0,-0.907 0,-1.334 V -2.819 H -0.371 V 1.379 H 0 Z"
         style="fill:#040700;fill-opacity:1;fill-rule:nonzero;stroke:none"
         transform="matrix(1.3333333,0,0,-1.3333333,142.22933,734.9024)" />
      <path
         id="path87"
         d="M 0,0 C -0.031,0.667 -0.403,1.077 -0.969,1.077 -1.535,1.077 -1.881,0.698 -1.964,0 Z m 0.34,-0.73 c -0.139,-0.699 -0.598,-1.089 -1.29,-1.089 -0.843,0 -1.391,0.617 -1.391,1.567 0,0.964 0.573,1.636 1.385,1.636 0.528,0 0.969,-0.295 1.182,-0.792 0.108,-0.246 0.151,-0.51 0.151,-0.9 h -2.346 c 0.019,-0.774 0.383,-1.202 1.025,-1.202 0.492,0 0.806,0.264 0.931,0.78 z"
         style="fill:#040700;fill-opacity:1;fill-rule:nonzero;stroke:none"
         transform="matrix(1.3333333,0,0,-1.3333333,149.2672,736.35427)" />
      <path
         id="path88"
         d="m 0,0 h 1.215 c 0.365,0 0.56,0.038 0.73,0.145 0.239,0.151 0.371,0.402 0.371,0.717 0,0.315 -0.125,0.567 -0.358,0.712 C 1.775,1.687 1.605,1.718 1.196,1.718 H 0 Z M 1.278,2.064 C 1.757,2.064 2.001,2.008 2.234,1.857 2.549,1.643 2.713,1.316 2.713,0.882 2.713,0.44 2.555,0.107 2.247,-0.113 2.014,-0.277 1.757,-0.346 1.328,-0.346 H 0 v -1.788 h -0.396 v 4.198 z"
         style="fill:#040700;fill-opacity:1;fill-rule:nonzero;stroke:none"
         transform="matrix(1.3333333,0,0,-1.3333333,153.63707,735.8172)" />
      <path
         id="path89"
         d="M 0,0 C -0.12,-0.107 -0.208,-0.132 -0.837,-0.215 -1.171,-0.258 -1.391,-0.328 -1.53,-0.422 -1.655,-0.51 -1.743,-0.68 -1.743,-0.85 c 0,-0.352 0.283,-0.592 0.71,-0.592 0.599,0 1.033,0.397 1.033,0.944 z M 0.705,-1.636 C 0.604,-1.668 0.522,-1.681 0.409,-1.681 c -0.289,0 -0.391,0.145 -0.391,0.554 -0.276,-0.428 -0.622,-0.616 -1.144,-0.616 -0.617,0 -0.989,0.32 -0.989,0.861 0,0.398 0.202,0.681 0.598,0.825 0.214,0.081 0.239,0.081 1.038,0.163 C -0.113,0.145 0,0.233 0,0.491 c 0,0.465 -0.24,0.66 -0.793,0.66 -0.529,0 -0.774,-0.214 -0.824,-0.711 h -0.359 c 0.031,0.655 0.472,1.02 1.227,1.02 0.39,0 0.73,-0.114 0.925,-0.309 C 0.321,0.994 0.364,0.843 0.359,0.409 v -0.893 -0.46 c 0,-0.372 0.025,-0.428 0.207,-0.428 0.031,0 0.069,0.006 0.139,0.025 z"
         style="fill:#040700;fill-opacity:1;fill-rule:nonzero;stroke:none"
         transform="matrix(1.3333333,0,0,-1.3333333,160.7596,736.4544)" />
      <path
         id="path90"
         d="M 0,0 H -0.094 C -0.409,0 -0.679,-0.12 -0.868,-0.334 -1.076,-0.579 -1.132,-0.825 -1.132,-1.46 V -2.7 h -0.372 v 3.027 h 0.346 V -0.396 C -0.931,0.138 -0.566,0.384 0,0.371 Z"
         style="fill:#040700;fill-opacity:1;fill-rule:nonzero;stroke:none"
         transform="matrix(1.3333333,0,0,-1.3333333,164.66,735.06173)" />
      <path
         id="path91"
         d="m 0,0 h -0.629 v -1.913 c 0,-0.428 0.056,-0.504 0.384,-0.504 0.075,0 0.144,0.007 0.245,0.019 v -0.321 c -0.12,-0.011 -0.195,-0.018 -0.333,-0.018 -0.328,0 -0.51,0.075 -0.598,0.257 -0.057,0.114 -0.07,0.227 -0.07,0.756 V 0 H -1.53 v 0.308 h 0.529 V 1.24 h 0.372 V 0.308 H 0 Z"
         style="fill:#040700;fill-opacity:1;fill-rule:nonzero;stroke:none"
         transform="matrix(1.3333333,0,0,-1.3333333,167.1932,735.0372)" />
      <path
         id="path92"
         d="M 0,0 C -0.031,0.667 -0.403,1.077 -0.969,1.077 -1.535,1.077 -1.881,0.698 -1.964,0 Z m 0.34,-0.73 c -0.139,-0.699 -0.598,-1.089 -1.29,-1.089 -0.843,0 -1.391,0.617 -1.391,1.567 0,0.964 0.573,1.636 1.385,1.636 0.528,0 0.969,-0.295 1.182,-0.792 0.108,-0.246 0.151,-0.51 0.151,-0.9 h -2.346 c 0.019,-0.774 0.383,-1.202 1.025,-1.202 0.492,0 0.806,0.264 0.931,0.78 z"
         style="fill:#040700;fill-opacity:1;fill-rule:nonzero;stroke:none"
         transform="matrix(1.3333333,0,0,-1.3333333,170.97693,736.35427)" />
      <path
         id="path93"
         d="m 129.83,41.28 h -0.371 v 3.027 h 0.371 z m 0,3.606 h -0.371 v 0.592 h 0.371 z"
         style="fill:#040700;fill-opacity:1;fill-rule:nonzero;stroke:none"
         transform="matrix(1.3333333,0,0,-1.3333333,0,793.70133)" />
      <path
         id="path94"
         d="M 0,0 H 1.253 C 1.7,0 1.958,0.05 2.141,0.17 2.361,0.321 2.487,0.561 2.487,0.85 2.487,1.177 2.322,1.422 2.021,1.555 1.845,1.63 1.58,1.668 1.221,1.668 H 0 Z m 0,1.989 h 1.121 c 0.371,0 0.572,0.025 0.736,0.082 0.284,0.107 0.465,0.371 0.465,0.673 0,0.321 -0.151,0.554 -0.434,0.674 C 1.737,3.481 1.548,3.506 1.221,3.506 H 0 Z m 1.297,1.863 c 0.435,0 0.679,-0.045 0.9,-0.164 C 2.524,3.506 2.719,3.178 2.719,2.8 2.719,2.341 2.436,1.983 1.99,1.876 2.191,1.832 2.297,1.793 2.417,1.725 2.713,1.542 2.883,1.228 2.883,0.856 2.883,0.384 2.637,-0.006 2.209,-0.208 2.008,-0.302 1.75,-0.346 1.397,-0.346 h -1.793 v 4.198 z"
         style="fill:#040700;fill-opacity:1;fill-rule:nonzero;stroke:none"
         transform="matrix(1.3333333,0,0,-1.3333333,74.9444,746.5888)" />
      <path
         id="path95"
         d="M 0,0 C -0.031,0.667 -0.403,1.077 -0.969,1.077 -1.535,1.077 -1.881,0.698 -1.964,0 Z m 0.34,-0.73 c -0.139,-0.699 -0.598,-1.089 -1.29,-1.089 -0.843,0 -1.391,0.617 -1.391,1.567 0,0.964 0.573,1.636 1.385,1.636 0.528,0 0.969,-0.295 1.183,-0.792 0.107,-0.246 0.151,-0.51 0.151,-0.9 h -2.347 c 0.019,-0.774 0.383,-1.202 1.025,-1.202 0.492,0 0.806,0.264 0.931,0.78 z"
         style="fill:#040700;fill-opacity:1;fill-rule:nonzero;stroke:none"
         transform="matrix(1.3333333,0,0,-1.3333333,82.8644,744.74293)" />
      <path
         id="path96"
         d="M 0,0 H -0.094 C -0.409,0 -0.679,-0.12 -0.868,-0.334 -1.076,-0.579 -1.132,-0.825 -1.132,-1.46 V -2.7 h -0.372 v 3.027 h 0.346 V -0.396 C -0.931,0.138 -0.566,0.384 0,0.371 Z"
         style="fill:#040700;fill-opacity:1;fill-rule:nonzero;stroke:none"
         transform="matrix(1.3333333,0,0,-1.3333333,86.496133,743.4504)" />
      <path
         id="path97"
         d="m 65.885,34.988 h -0.371 v 3.027 h 0.371 z m 0,3.606 h -0.371 v 0.592 h 0.371 z"
         style="fill:#040700;fill-opacity:1;fill-rule:nonzero;stroke:none"
         transform="matrix(1.3333333,0,0,-1.3333333,0,793.70133)" />
      <path
         id="path98"
         d="M 0,0 C 0.107,0.182 0.164,0.257 0.252,0.339 0.459,0.547 0.742,0.654 1.077,0.654 1.467,0.654 1.8,0.503 1.97,0.239 2.089,0.057 2.127,-0.12 2.127,-0.516 V -2.461 H 1.756 v 1.832 c 0,0.383 -0.038,0.559 -0.139,0.698 C 1.492,0.233 1.259,0.333 0.995,0.333 0.624,0.333 0.315,0.157 0.164,-0.138 0.057,-0.34 0.025,-0.541 0.025,-0.938 V -2.461 H -0.346 V 0.566 H 0 Z"
         style="fill:#040700;fill-opacity:1;fill-rule:nonzero;stroke:none"
         transform="matrix(1.3333333,0,0,-1.3333333,89.674667,743.76893)" />
      <path
         id="path99"
         d="m 0,0 c -0.126,-0.201 -0.201,-0.504 -0.201,-0.8 0,-0.76 0.377,-1.233 0.981,-1.233 0.61,0 1.001,0.478 1.001,1.233 0,0.75 -0.377,1.222 -0.976,1.222 C 0.434,0.422 0.182,0.289 0,0 M 2.152,-2.096 C 2.152,-2.555 2.102,-2.8 1.969,-3.027 1.762,-3.38 1.347,-3.574 0.786,-3.574 c -0.743,0 -1.195,0.332 -1.239,0.918 h 0.371 c 0.063,-0.416 0.346,-0.617 0.875,-0.617 0.692,0 0.994,0.328 0.994,1.089 v 0.503 c -0.213,-0.453 -0.541,-0.66 -1.051,-0.66 -0.806,0 -1.309,0.579 -1.309,1.498 0,0.95 0.529,1.573 1.347,1.573 0.472,0 0.793,-0.202 1.032,-0.654 v 0.566 h 0.346 z"
         style="fill:#040700;fill-opacity:1;fill-rule:nonzero;stroke:none"
         transform="matrix(1.3333333,0,0,-1.3333333,94.381467,743.86987)" />
      <path
         id="path100"
         d="M 0,0 C -0.031,0.667 -0.403,1.077 -0.969,1.077 -1.535,1.077 -1.881,0.698 -1.964,0 Z m 0.34,-0.73 c -0.139,-0.699 -0.598,-1.089 -1.29,-1.089 -0.843,0 -1.391,0.617 -1.391,1.567 0,0.964 0.573,1.636 1.385,1.636 0.528,0 0.969,-0.295 1.182,-0.792 0.108,-0.246 0.151,-0.51 0.151,-0.9 h -2.346 c 0.019,-0.774 0.383,-1.202 1.025,-1.202 0.492,0 0.806,0.264 0.931,0.78 z"
         style="fill:#040700;fill-opacity:1;fill-rule:nonzero;stroke:none"
         transform="matrix(1.3333333,0,0,-1.3333333,101.5204,744.74293)" />
      <path
         id="path101"
         d="M 0,0 C 0.107,0.182 0.164,0.257 0.252,0.339 0.459,0.547 0.742,0.654 1.077,0.654 1.467,0.654 1.8,0.503 1.97,0.239 2.089,0.057 2.127,-0.12 2.127,-0.516 V -2.461 H 1.756 v 1.832 c 0,0.383 -0.038,0.559 -0.139,0.698 C 1.492,0.233 1.259,0.333 0.995,0.333 0.624,0.333 0.315,0.157 0.164,-0.138 0.057,-0.34 0.025,-0.541 0.025,-0.938 V -2.461 H -0.346 V 0.566 H 0 Z"
         style="fill:#040700;fill-opacity:1;fill-rule:nonzero;stroke:none"
         transform="matrix(1.3333333,0,0,-1.3333333,103.61653,743.76893)" />
    </g>
  </g>
</svg>
