<?xml version="1.0" encoding="UTF-8" standalone="no"?>
<svg
   version="1.1"
   id="svg1"
   width="39.626686"
   height="41.130665"
   viewBox="0 0 39.626686 41.130665"
   xmlns="http://www.w3.org/2000/svg"
   xmlns:svg="http://www.w3.org/2000/svg">
  <defs
     id="defs1">
    <clipPath
       clipPathUnits="userSpaceOnUse"
       id="clipPath64">
      <path
         d="M -28.100601,-27.793898 H 81.887402 V 3.0541026 H -28.100601 Z"
         id="path64" />
    </clipPath>
    <clipPath
       clipPathUnits="userSpaceOnUse"
       id="clipPath66">
      <path
         d="M 0,793.70133 H 559.37067 V 0 H 0 Z"
         id="path66" />
    </clipPath>
  </defs>
  <g
     id="g1"
     transform="translate(-26.456786,-718.52133)">
    <g
       id="g65"
       clip-path="url(#clipPath66)">
      <path
         d="m 0,0 c 0.003,-0.001 0.006,-0.002 0.008,-0.003 0.047,-0.021 0.091,-0.042 0.135,-0.067 -1.91,1.039 -3.821,2.078 -5.731,3.117 -0.032,0.018 -0.064,0.034 -0.097,0.051 -0.012,0.005 -0.025,0.011 -0.037,0.016 -0.054,0.024 -0.107,0.047 -0.161,0.069 -0.022,0.008 -0.044,0.018 -0.065,0.026 -0.075,0.028 -0.154,0.052 -0.233,0.072 -0.001,0 -0.004,0.002 -0.006,0.002 -0.011,0.004 -0.024,0.005 -0.035,0.007 -0.065,0.016 -0.13,0.03 -0.197,0.04 -0.027,0.005 -0.055,0.008 -0.083,0.013 -0.054,0.006 -0.11,0.012 -0.166,0.017 -0.029,0.001 -0.06,0.004 -0.089,0.004 -0.058,0.003 -0.117,0.003 -0.175,0.001 -0.027,0 -0.054,0 -0.082,-0.001 C -7.1,3.36 -7.187,3.352 -7.274,3.339 L -24.887,0.864 C -24.985,0.85 -25.081,0.83 -25.178,0.808 -25.204,0.801 -25.23,0.794 -25.256,0.787 -25.331,0.767 -25.403,0.744 -25.476,0.72 -25.5,0.712 -25.524,0.704 -25.547,0.696 c -0.087,-0.033 -0.174,-0.07 -0.259,-0.108 -0.004,-0.002 -0.008,-0.004 -0.013,-0.007 -0.025,-0.012 -0.048,-0.026 -0.072,-0.039 -0.07,-0.033 -0.138,-0.069 -0.205,-0.109 -0.033,-0.02 -0.065,-0.042 -0.099,-0.063 -0.043,-0.026 -0.086,-0.051 -0.126,-0.079 -0.01,-0.007 -0.019,-0.016 -0.028,-0.023 -0.117,-0.082 -0.23,-0.172 -0.338,-0.266 -0.006,-0.007 -0.013,-0.012 -0.02,-0.017 -0.017,-0.015 -0.033,-0.033 -0.049,-0.05 -0.081,-0.074 -0.156,-0.152 -0.23,-0.231 -0.014,-0.016 -0.032,-0.031 -0.046,-0.048 -0.013,-0.014 -0.023,-0.03 -0.036,-0.045 -0.079,-0.091 -0.154,-0.187 -0.225,-0.286 -0.009,-0.011 -0.019,-0.022 -0.027,-0.035 -0.003,-0.002 -0.004,-0.004 -0.005,-0.007 -0.083,-0.12 -0.159,-0.245 -0.23,-0.373 -0.008,-0.014 -0.018,-0.028 -0.025,-0.041 -0.021,-0.039 -0.04,-0.08 -0.059,-0.12 -0.018,-0.035 -0.036,-0.07 -0.053,-0.104 -0.032,-0.073 -0.063,-0.146 -0.092,-0.221 -0.012,-0.026 -0.023,-0.051 -0.032,-0.077 -0.002,-0.005 -0.004,-0.009 -0.006,-0.014 -0.021,-0.056 -0.038,-0.113 -0.055,-0.171 -0.015,-0.047 -0.032,-0.095 -0.045,-0.142 -0.018,-0.065 -0.031,-0.132 -0.048,-0.198 -0.008,-0.046 -0.022,-0.091 -0.031,-0.138 -0.013,-0.073 -0.021,-0.147 -0.031,-0.221 -0.004,-0.041 -0.012,-0.081 -0.016,-0.12 -0.011,-0.115 -0.016,-0.231 -0.017,-0.348 l -0.035,-19.01 c -0.003,-1.214 0.589,-2.202 1.477,-2.683 1.909,-1.04 3.821,-2.079 5.73,-3.118 -0.011,0.006 -0.021,0.014 -0.032,0.02 0.497,-0.279 1.089,-0.401 1.721,-0.312 l 17.613,2.474 c 1.743,0.246 3.174,1.986 3.177,3.868 L 1.62,-2.756 C 1.622,-1.479 0.967,-0.452 0,0"
         style="fill:#e8160c;fill-opacity:1;fill-rule:nonzero;stroke:none"
         transform="matrix(1.3333333,0,0,-1.3333333,63.923467,722.59347)"
         clip-path="url(#clipPath64)"
         id="path65" />
    </g>
    <path
       id="path67"
       d="m 0,0 c -2.104,0 -3.051,1.052 -3.051,2.42 l 0.105,0.105 h 1.262 L -1.578,2.42 c 0,-0.736 0.42,-1.156 1.682,-1.156 0.948,0 1.474,0.314 1.474,0.946 0,0.736 -0.421,0.946 -1.894,1.157 -1.474,0.21 -2.63,0.736 -2.63,2.211 0,1.05 0.842,1.998 2.841,1.998 1.999,0 2.84,-0.948 2.84,-2.209 L 2.63,5.261 H 1.367 L 1.262,5.367 c 0,0.63 -0.315,0.946 -1.472,0.946 -0.948,0 -1.263,-0.316 -1.263,-0.735 0,-0.632 0.421,-0.843 1.894,-1.053 C 1.894,4.314 3.051,3.683 3.051,2.21 3.051,1.052 2.209,0 0,0"
       style="fill:#ffffff;fill-opacity:1;fill-rule:nonzero;stroke:none"
       transform="matrix(1.3333333,0,0,-1.3333333,36.696667,743.55227)" />
    <path
       id="path68"
       d="m 0,0 h -1.999 l -0.106,-0.104 v -1.684 l 0.106,-0.106 H 0 c 0.631,0 1.052,0.211 1.052,0.947 C 1.052,-0.21 0.631,0 0,0 M 0,-3.156 H -1.999 L -2.105,-3.262 V -5.997 L -2.21,-6.102 h -1.263 l -0.104,0.105 v 7.155 l 0.104,0.106 H 0 c 1.472,0 2.524,-0.738 2.524,-2.211 C 2.524,-2.42 1.472,-3.156 0,-3.156"
       style="fill:#ffffff;fill-opacity:1;fill-rule:nonzero;stroke:none"
       transform="matrix(1.3333333,0,0,-1.3333333,46.7948,735.2756)" />
  </g>
</svg>
