<?xml version="1.0" encoding="UTF-8" standalone="no"?>
<!-- Created with Inkscape (http://www.inkscape.org/) -->

<svg
   version="1.1"
   id="svg1"
   width="88.081879"
   height="144.59131"
   viewBox="0 0 88.081879 144.59131"
   sodipodi:docname="man-with-ball.svg"
   inkscape:version="1.4.4 (dcaf3e7, 2026-05-05)"
   xmlns:inkscape="http://www.inkscape.org/namespaces/inkscape"
   xmlns:sodipodi="http://sodipodi.sourceforge.net/DTD/sodipodi-0.dtd"
   xmlns="http://www.w3.org/2000/svg"
   xmlns:svg="http://www.w3.org/2000/svg">
  <sodipodi:namedview
     id="namedview1"
     pagecolor="#ffffff"
     bordercolor="#000000"
     borderopacity="0.25"
     inkscape:showpageshadow="2"
     inkscape:pageopacity="0.0"
     inkscape:pagecheckerboard="0"
     inkscape:deskcolor="#d1d1d1"
     inkscape:zoom="8.0710245"
     inkscape:cx="43.984503"
     inkscape:cy="52.471653"
     inkscape:window-width="5120"
     inkscape:window-height="1369"
     inkscape:window-x="-8"
     inkscape:window-y="-8"
     inkscape:window-maximized="1"
     inkscape:current-layer="g1" />
  <defs
     id="defs1">
    <clipPath
       clipPathUnits="userSpaceOnUse"
       id="clipPath119">
      <path
         d="M -424.18871,-392.07621 H -4.6606976 V 203.19981 H -424.18871 Z"
         id="path119" />
    </clipPath>
    <clipPath
       clipPathUnits="userSpaceOnUse"
       id="clipPath166">
      <path
         d="M 0,793.70133 H 559.37067 V 0 H 0 Z"
         id="path166" />
    </clipPath>
  </defs>
  <g
     id="g1"
     transform="translate(-414.57239,-279.68549)">
    <path
       id="path122"
       d="m 0,0 c 5.701,-6.273 21.524,-32.302 20.002,-37.459 l -8.277,-28.054 -1.467,-5.038 c -0.308,-1.057 -0.593,-1.973 -1.237,-2.726 -3.122,1.197 -6.559,1.879 -9.429,0.47 l -7.935,8.907 7.829,11.553 c 5.44,2.239 9.077,12.3 8.985,18.929 -0.017,1.234 -0.633,2.818 -1.193,3.943 l -8.156,16.393 -3.916,9.834 -0.055,4.389 c -0.005,0.383 1.135,1.123 1.463,0.924 l 1.158,-0.703 z"
       style="fill:#fa9c69;fill-opacity:1;fill-rule:nonzero;stroke:none"
       transform="matrix(1.3333333,0,0,-1.3333333,475.39747,314.4588)" />
    <path
       id="path123"
       d="m 0,0 c -0.587,-0.006 -0.955,-0.716 -1.199,-1.514 l -3.702,-12.391 -2.776,-2.418 c -1.712,-1.491 -2.804,-3.28 -2.584,-5.645 l 0.46,-4.947 c -2.061,-1.364 -3.557,-4.538 -2.443,-7.02 l 1.217,-1.835 c 0.274,-0.412 -0.467,-1.468 -0.875,-2.023 -2.701,-3.674 -2.217,-9.047 2.159,-11.225 -1.361,-3.347 -1.108,-7.26 1.503,-9.73 3.064,-2.9 8.468,-2.074 11.021,1.398 l 2.268,-2.864 3.26,-3.485 -7.819,-11.436 c -3.634,1.241 -7.076,2.74 -10.954,3.295 l -2.347,7.199 -1.032,3.524 c -2.449,8.359 -4.663,16.628 -6.13,25.213 -0.657,3.84 -0.251,6.881 1.116,10.398 3.321,8.541 5.957,17.193 10.025,25.394 l 3.814,7.687 3.7753003,0.7015996 1.70572512,-1.7638999 C 0.41502542,2.3846997 0.47845027,2.3263 0,0"
       style="fill:#fa9c69;fill-opacity:1;fill-rule:nonzero;stroke:none"
       transform="matrix(1.3333333,0,0,-1.3333333,447.14027,314.4744)"
       sodipodi:nodetypes="ccccccccccccccccccccccccc" />
    <path
       id="path125"
       d="m 0,0 3.603,-1.23 c 1.835,-0.627 3.905,-0.75 6.174,-0.813 2.804,-0.077 5.102,1.724 7.401,2.852 l 3.116,1.53 c 2.871,1.409 6.307,0.727 9.43,-0.469 0.643,0.753 0.928,1.669 1.236,2.726 l 1.467,5.037 1.206,-2.021 C 37.421,5.215 40.681,1.066 40.945,-3.64 l 0.2,-3.555 -66.013,-0.022 c -0.418,5.095 1.914,9.58 5.321,12.981 3.118,3.112 5.578,2.755 6.246,4.73 l 2.347,-7.2 C -7.077,2.74 -3.635,1.241 0,0"
       style="fill:#e3ede8;fill-opacity:1;fill-rule:nonzero;stroke:none"
       transform="matrix(1.3333333,0,0,-1.3333333,447.79427,414.65413)" />
    <path
       id="path126"
       d="m 0,0 -7.83,-11.553 c -0.843,-0.601 -1.54,-1.745 -2.017,-2.726 l -6.739,-9.751 -3.603,1.23 7.819,11.435 c 0.688,0.999 1.779,2.046 1.982,3.191 l 1.516,1.898 5.338,8.126 z"
       style="fill:#425991;fill-opacity:1;fill-rule:nonzero;stroke:none"
       transform="matrix(1.3333333,0,0,-1.3333333,474.71253,384.2544)" />
    <path
       id="path127"
       d="m 0,0 7.935,-8.907 -3.116,-1.531 -6.836,7.712 C -1.541,-1.745 -0.843,-0.601 0,0"
       style="fill:#17194f;fill-opacity:1;fill-rule:nonzero;stroke:none"
       transform="matrix(1.3333333,0,0,-1.3333333,464.27307,399.65867)" />
    <path
       id="path128"
       d="m 0,0 -2.887,-0.149 c -1.259,-2.351 -3.016,-3.677 -5.401,-5.057 2.026,-2.309 3.348,-5.711 1.371,-8.069 -1.21,-1.443 -1.708,-2.66 -0.453,-4.317 1.737,-2.294 1.719,-5.977 -0.097,-8.167 l -2.286,-2.756 0.398,-3.159 -1.301,-3.596 c -2.552,-3.472 -7.956,-4.299 -11.021,-1.399 -2.61,2.471 -2.864,6.384 -1.502,9.73 -4.376,2.179 -4.86,7.551 -2.159,11.225 0.408,0.555 1.149,1.612 0.875,2.024 l -1.217,1.835 c -1.114,2.482 0.382,5.656 2.443,7.02 l -0.46,4.947 c -0.22,2.364 0.872,4.153 2.584,5.644 l 2.776,2.418 c 0.276,-0.045 1.23,0.01 1.556,0.183 2.968,1.58 6.781,2.321 9.771,0.631 C -5.394,8.074 -4.143,7.984 -2.379,8.684 -1.104,9.191 1.235,8.515 1.85,7.402 3.482,4.453 2.725,1.422 0,0"
       style="fill:#fcc74f;fill-opacity:1;fill-rule:nonzero;stroke:none"
       transform="matrix(1.3333333,0,0,-1.3333333,465.05507,343.91387)" />
    <path
       id="path129"
       d="M 0,0 C -0.202,-1.146 -1.293,-2.192 -1.982,-3.191 L -5.241,0.295 -7.51,3.159 -6.21,6.755 -2.801,3.15 Z"
       style="fill:#17194f;fill-opacity:1;fill-rule:nonzero;stroke:none"
       transform="matrix(1.3333333,0,0,-1.3333333,460.86133,395.15253)" />
    <path
       id="path130"
       d="m 0,0 6.836,-7.712 c -2.299,-1.128 -4.597,-2.929 -7.401,-2.852 -2.269,0.063 -4.339,0.187 -6.174,0.813 z"
       style="fill:#f59666;fill-opacity:1;fill-rule:nonzero;stroke:none"
       transform="matrix(1.3333333,0,0,-1.3333333,461.5836,403.29307)" />
    <path
       id="path131"
       d="M 0,0 C 1.119,-1.234 2.28,-2.004 4.121,-3.159 L 3.198,-5.945 c 0.623,-4.188 -0.072,-7.914 -1.782,-11.657 -1.103,-2.413 -1.425,-5.087 0.121,-7.463 l 2.172,-3.34 -5.338,-8.126 -1.516,-1.898 -2.801,3.15 -3.409,3.605 -0.398,3.159 2.286,2.756 c 1.816,2.19 1.834,5.873 0.097,8.167 -1.255,1.657 -0.757,2.874 0.453,4.317 1.977,2.358 0.655,5.76 -1.371,8.069 2.385,1.38 4.142,2.706 5.401,5.057 z"
       style="fill:#fa9c69;fill-opacity:1;fill-rule:nonzero;stroke:none"
       transform="matrix(1.3333333,0,0,-1.3333333,465.05507,343.91387)" />
  </g>
</svg>
