<?xml version="1.0" encoding="UTF-8" standalone="no"?>
<!-- Created with Inkscape (http://www.inkscape.org/) -->

<svg
   version="1.1"
   id="svg1"
   width="284.22104"
   height="222.9928"
   viewBox="0 0 284.22104 222.9928"
   xmlns="http://www.w3.org/2000/svg"
   xmlns:svg="http://www.w3.org/2000/svg">
  <defs
     id="defs1">
    <clipPath
       clipPathUnits="userSpaceOnUse"
       id="clipPath3">
      <path
         d="M -254.99731,-439.07521 H 164.5307 V 156.2008 h -419.52801 z"
         id="path3" />
    </clipPath>
    <clipPath
       clipPathUnits="userSpaceOnUse"
       id="clipPath5">
      <path
         d="M -346.59591,-683.43261 H 72.932099 V -88.1566 H -346.59591 Z"
         id="path5" />
    </clipPath>
    <clipPath
       clipPathUnits="userSpaceOnUse"
       id="clipPath7">
      <path
         d="M -331.24901,-683.43261 H 88.279005 V -88.1566 H -331.24901 Z"
         id="path7" />
    </clipPath>
    <clipPath
       clipPathUnits="userSpaceOnUse"
       id="clipPath9">
      <path
         d="M -435.91311,-471.77641 H -16.385103 V 123.4996 H -435.91311 Z"
         id="path9" />
    </clipPath>
    <clipPath
       clipPathUnits="userSpaceOnUse"
       id="clipPath11">
      <path
         d="M -408.33501,-683.43162 H 11.192998 V -88.155602 H -408.33501 Z"
         id="path11" />
    </clipPath>
    <clipPath
       clipPathUnits="userSpaceOnUse"
       id="clipPath13">
      <path
         d="M -449.76201,-597.57471 H -30.234003 V -2.2987 H -449.76201 Z"
         id="path13" />
    </clipPath>
    <clipPath
       clipPathUnits="userSpaceOnUse"
       id="clipPath15">
      <path
         d="M -435.38231,-472.39211 H -15.854298 V 122.8839 H -435.38231 Z"
         id="path15" />
    </clipPath>
    <clipPath
       clipPathUnits="userSpaceOnUse"
       id="clipPath17">
      <path
         d="M -427.30711,-536.59231 H -7.7791002 V 58.683701 H -427.30711 Z"
         id="path17" />
    </clipPath>
    <clipPath
       clipPathUnits="userSpaceOnUse"
       id="clipPath19">
      <path
         d="M -449.76221,-446.73241 H -30.234198 V 148.5436 H -449.76221 Z"
         id="path19" />
    </clipPath>
    <clipPath
       clipPathUnits="userSpaceOnUse"
       id="clipPath22">
      <path
         d="M -273.28,-599.04152 H 146.24801 V -3.7655001 H -273.28 Z"
         id="path22" />
    </clipPath>
    <clipPath
       clipPathUnits="userSpaceOnUse"
       id="clipPath24">
      <path
         d="M -392.54081,-547.52881 H 26.987203 V 47.747201 H -392.54081 Z"
         id="path24" />
    </clipPath>
    <clipPath
       clipPathUnits="userSpaceOnUse"
       id="clipPath26">
      <path
         d="M -420.10131,-617.49122 H -0.57330251 V -22.215201 H -420.10131 Z"
         id="path26" />
    </clipPath>
    <clipPath
       clipPathUnits="userSpaceOnUse"
       id="clipPath28">
      <path
         d="M -410.72921,-537.88381 H 8.7988027 V 57.392201 H -410.72921 Z"
         id="path28" />
    </clipPath>
    <clipPath
       clipPathUnits="userSpaceOnUse"
       id="clipPath30">
      <path
         d="M -377.26731,-494.92921 H 42.260699 V 100.3468 H -377.26731 Z"
         id="path30" />
    </clipPath>
    <clipPath
       clipPathUnits="userSpaceOnUse"
       id="clipPath32">
      <path
         d="M -421.28101,-496.26371 H -1.753 V 99.012302 h -419.52801 z"
         id="path32" />
    </clipPath>
    <clipPath
       clipPathUnits="userSpaceOnUse"
       id="clipPath35">
      <path
         d="M -430.63501,-554.76171 H -11.107 V 40.514301 h -419.52801 z"
         id="path35" />
    </clipPath>
    <clipPath
       clipPathUnits="userSpaceOnUse"
       id="clipPath37">
      <path
         d="M -425.25491,-545.89701 H -5.7268976 V 49.379001 H -425.25491 Z"
         id="path37" />
    </clipPath>
    <clipPath
       clipPathUnits="userSpaceOnUse"
       id="clipPath42">
      <path
         d="M -291.95341,-606.79542 H 127.5746 V -11.5194 h -419.52801 z"
         id="path42" />
    </clipPath>
    <clipPath
       clipPathUnits="userSpaceOnUse"
       id="clipPath50">
      <path
         d="M -425.82931,-475.62701 H -6.3013002 V 119.649 H -425.82931 Z"
         id="path50" />
    </clipPath>
    <clipPath
       clipPathUnits="userSpaceOnUse"
       id="clipPath52">
      <path
         d="M -277.64361,-607.35741 H 141.8844 V -12.0814 h -419.52801 z"
         id="path52" />
    </clipPath>
  </defs>
  <g
     id="g1"
     transform="translate(-123.4826,-211.51767)">
    <path
       id="path2"
       d="m 0,0 -0.039,0.198 13.925,25.03 c 9.077,16.315 11.317,36.384 13.743,54.932 2.547,19.48 6.513,42.255 13.981,60.279 3.112,7.51 7.179,14.18 11.819,20.82 l 10.104,14.457 c 6.87,9.831 10.628,21.001 13.88,32.438 3.712,13.053 7.468,24.413 14.186,36.203 l 61.739,-0.001 -0.661,-1.666 c -2.606,-5.991 -5.061,-11.842 -6.966,-18.117 l -4.426,-14.575 c -2.016,-6.638 -4.53,-12.896 -7.724,-19.045 l -7.383,-12.722 c -3.597,-6.197 -7.283,-12.057 -10.542,-18.455 C 103.479,135.912 99.979,111.576 97.186,85.254 96.318,77.068 95.377,69.205 94.012,61.096 92.962,54.858 91.253,49.119 88.944,43.266 86.502,37.078 85.228,33.654 85.232,26.463 L 85.245,0.24 78.075,0.183 Z"
       style="fill:#c4c7cc;fill-opacity:1;fill-rule:nonzero;stroke:none"
       transform="matrix(1.3333333,0,0,-1.3333333,188.32939,419.7854)"
       clip-path="url(#clipPath3)" />
    <path
       id="path4"
       d="m 0,0 c -6.718,-11.79 -10.473,-23.151 -14.185,-36.204 -3.253,-11.436 -7.01,-22.607 -13.88,-32.437 l -10.104,-14.457 c -4.64,-6.64 -8.708,-13.311 -11.82,-20.82 -7.468,-18.024 -11.433,-40.799 -13.981,-60.28 -2.426,-18.547 -4.666,-38.616 -13.742,-54.931 l -13.925,-25.03 -0.214,0.854 0.008,23.18 c 0.065,2.774 0.021,5.462 0.62,8.125 0.623,2.766 1.94,5.192 3.15,7.744 2.259,4.764 4.591,9.289 6.356,14.281 1.722,4.868 2.83,9.716 3.579,14.846 l 3.274,22.425 c 1.604,10.984 3.338,21.662 6.108,32.422 3.396,13.194 8.182,25.734 14.9,37.557 2.649,4.664 5.575,8.834 8.45,13.323 l 8.387,13.098 c 6.174,9.64 10.112,22.435 13.339,33.53 2.29,7.876 4.846,15.444 8.333,22.774 z"
       style="fill:#99a1a3;fill-opacity:1;fill-rule:nonzero;stroke:none"
       transform="matrix(1.3333333,0,0,-1.3333333,310.46086,93.975542)"
       clip-path="url(#clipPath5)" />
    <path
       id="path6"
       d="m 0,0 c -3.487,-7.33 -6.043,-14.898 -8.333,-22.774 -3.227,-11.095 -7.165,-23.89 -13.339,-33.53 l -8.387,-13.098 c -2.875,-4.489 -5.801,-8.659 -8.45,-13.323 -6.718,-11.823 -11.504,-24.363 -14.9,-37.557 -2.77,-10.76 -4.505,-21.438 -6.108,-32.422 l -3.275,-22.425 c -0.749,-5.13 -1.856,-9.978 -3.578,-14.846 -1.765,-4.992 -4.097,-9.517 -6.356,-14.281 -1.21,-2.552 -2.527,-4.978 -3.15,-7.744 -0.599,-2.663 -0.555,-5.351 -0.62,-8.125 l -0.008,-23.18 0.213,-0.854 0.039,-0.198 -4.174,0.048 -0.068,7.696 -19.302,0.196 19.313,0.137 0.012,11.138 0.028,4.381 -13.815,0.011 c -10.052,0.007 -18.245,8.378 -18.182,17.973 0.562,3.425 1.31,6.669 3.042,9.907 l 15.021,31.524 0.784,0.497 2.26,-4.362 -1.411,-3.496 c -1.709,0.676 -5.018,-0.069 -5.397,-2.535 -0.286,-1.861 0.583,-3.772 1.805,-5.074 -0.418,-0.913 -0.688,-2.21 -0.685,-3.214 -0.01,0.09 -0.529,-0.317 -0.593,-0.446 l -2.209,-4.369 c -2.368,-0.782 -3.495,-3.157 -3.653,-5.558 l -0.04,-0.359 0.057,-2.421 c -3.103,-5.208 -2.502,-12.281 1.96,-16.832 3.486,-3.555 8.111,-5.511 13.109,-5.632 l 8.101,-0.196 c 0.309,3.366 1.067,6.446 2.523,9.445 l 3.925,8.084 c 0.48,0.988 1.47,2.18 1.622,3.255 4.269,9.158 5.914,19.485 7.356,29.643 l 3.295,23.209 2.042,11.792 c 1.563,9.024 4.123,17.819 7.299,26.592 3.227,8.91 7.199,17.221 12.12,25.246 l 0.811,1.44 9.699,14.574 2.607,4.135 c 3.862,6.127 7.379,12.508 9.739,19.372 0.354,1.029 1.054,2.252 0.931,3.345 l 0.557,0.638 2.583,8.416 2.493,8.639 c 1.532,5.309 3.606,10.429 5.721,15.643 L -4.239,0 Z"
       style="fill:#dbe0e3;fill-opacity:1;fill-rule:nonzero;stroke:none"
       transform="matrix(1.3333333,0,0,-1.3333333,289.99832,93.975542)"
       clip-path="url(#clipPath7)" />
    <path
       id="path8"
       d="m 0,0 c -0.172,0.107 -0.643,0.479 -0.531,0.616 l 0.688,0.839 4.866,8.911 -65.247,0.017 -0.483,-2.404 -2.052,-6.208 -15.177,0.402 -4.076,-11.287 55.665,-0.051 c 0.004,0.007 0.004,0.014 0.007,0.02 l 19.292,0.048 0.027,4.47 20.87,-0.04 10e-4,4.593 z m -10.084,3.851 -18.198,0.243 c -0.642,0.04 -0.522,2.308 0.192,2.393 L -9.501,6.488 C -9.603,5.458 -9.75,4.837 -10.084,3.851"
       style="fill:#dbe0e3;fill-opacity:1;fill-rule:nonzero;stroke:none"
       transform="matrix(1.3333333,0,0,-1.3333333,429.55046,376.1838)"
       clip-path="url(#clipPath9)" />
    <path
       id="path10"
       d="m 0,0 -0.661,-1.666 c -2.606,-5.992 -5.06,-11.843 -6.966,-18.117 l -4.426,-14.575 c -2.016,-6.638 -4.53,-12.897 -7.723,-19.046 l -7.384,-12.721 c -3.596,-6.197 -7.282,-12.058 -10.541,-18.456 -12.157,-23.864 -15.658,-48.2 -18.45,-74.522 -0.869,-8.186 -1.81,-16.049 -3.174,-24.157 -1.05,-6.239 -2.759,-11.978 -5.069,-17.831 -2.441,-6.187 -3.715,-9.611 -3.712,-16.802 l 0.013,-26.224 -0.181,-0.001 c 0.015,-0.072 0.03,-0.144 0.043,-0.216 l 4.128,0.049 -0.036,28.62 c -0.001,2.307 0.055,4.682 0.853,6.74 l 3.198,8.256 c 1.982,5.116 3.796,10.079 4.523,15.555 l 2.745,20.707 2.691,22.443 c 2.531,21.098 9.497,44.845 20.28,63.166 l 8.492,14.427 c 4.084,6.939 7.858,13.778 10.305,21.474 l 5.795,18.225 C -2.548,-16.154 0.256,-7.902 4.231,0 Z"
       style="fill:#dbe0e3;fill-opacity:1;fill-rule:nonzero;stroke:none"
       transform="matrix(1.3333333,0,0,-1.3333333,392.77966,93.976872)"
       clip-path="url(#clipPath11)" />
    <path
       id="path12"
       d="m 0,0 v -7.832 l -3.827,0.18 c -0.262,0.001 -0.624,-0.897 -0.424,-1.027 0.198,-0.129 0.628,-0.302 0.879,-0.308 L 0.001,-9.113 0,-17.882 l -11.707,0.089 -0.683,-0.659 c -0.168,-0.163 0.519,-0.721 0.807,-0.722 l 9.917,-0.027 c 0.271,-0.001 0.88,-0.158 0.888,-0.329 -1.904,-3.745 -2.986,-7.716 -3.293,-12.144 -1.615,2.219 -3.412,3.843 -5.955,4.149 -2.525,0.303 -4.276,-1.541 -5.003,-3.733 l -33.39,0.057 3.613,8.582 c 4.871,-4.943 21.627,-5.066 28.509,7.219 0.713,1.272 0.601,2.721 -0.652,3.569 -1.293,0.876 -2.947,0.789 -4.584,0.394 1.686,2.8 2.825,5.449 3.707,8.384 C -12.148,-3.867 -5.307,-1.998 0,0"
       style="fill:#dbe0e3;fill-opacity:1;fill-rule:nonzero;stroke:none"
       transform="matrix(1.3333333,0,0,-1.3333333,448.01566,208.45274)"
       clip-path="url(#clipPath13)" />
    <path
       id="path14"
       d="M 0,0 C -0.112,-0.137 0.359,-0.509 0.531,-0.616 L 14.381,-0.689 14.38,0.594 2.242,0.788 7.11,9.775 14.379,9.531 v 1.4 l -26.911,0.216 6.016,11.253 20.894,-0.301 v 1.68 l -6.916,-0.027 5.096,9.257 c 0.17,0.309 0.361,0.928 0.648,0.943 l 1.175,-0.005 -0.002,1.282 -10.691,0.213 4.01,7.664 6.681,-0.055 v 1.51 l -23.982,-0.102 -0.533,-1.314 16.289,-0.07 -4.052,-7.672 -6.58,-0.007 c -0.234,0 -0.886,-0.625 -0.724,-0.771 l 0.669,-0.599 16.058,-0.074 -5.662,-10.225 -19.963,0.145 -1.295,-1.412 7.33,-0.104 -6.016,-11.224 -57.771,-0.004 5.212,11.455 8.526,-0.046 -1.835,1.734 -0.318,-0.307 -5.649,0.065 2.375,5.104 c -1.109,2.144 -2.063,4.467 -2.068,7.014 1.235,1.776 2.998,2.109 5.276,1.294 0.106,0.629 -0.056,1.313 -0.268,2.014 l -1.812,5.984 -0.476,2.243 c -0.433,2.034 -0.247,4.229 -0.004,6.231 0.208,1.703 1.325,3.183 2.511,3.789 1.624,0.83 3.148,0.926 4.857,0.213 1.408,-0.588 2.929,-1.583 3.843,-2.752 l 3.631,7.564 0.457,5.925 c 0.225,2.927 2.265,6.866 4.753,6.485 l 8.174,17.504 29.109,-0.031 -4.898,-8.804 -19.349,-0.009 c -0.328,0 -0.892,-0.603 -0.715,-0.838 0.141,-0.187 0.573,-0.414 0.872,-0.525 l 11.178,0.011 -3.678,-7.264 -4.248,-0.047 c -0.274,-0.003 -0.854,-0.654 -0.651,-0.807 l 0.736,-0.556 11.561,0.031 -4.13,-8.252 -5.772,-0.058 0.318,-1.369 16.26,0.077 -1.152,1.331 -8.156,0.033 4.096,8.199 2.905,0.078 0.255,-0.336 c 1.181,1.046 2.771,0.84 4.181,0.039 l -0.183,1.447 -1.202,0.171 -13.266,-0.023 3.493,7.287 12.357,-0.056 c 0.33,0.491 1.214,1.077 1.76,1.099 0.564,0.022 1.682,-0.51 1.978,-1.013 l 1.335,0.122 -0.569,1.409 -8.59,-0.15 4.804,8.748 2.929,-0.02 0.451,1.359 -33.39,0.058 3.612,8.581 -3.218,3.267 c -1.878,1.905 -2.67,4.199 -2.638,6.917 0.036,2.953 -2.762,5.732 -1.729,9.524 0.083,0.307 0.39,0.782 0.61,0.927 0.969,0.641 3.213,-1.569 4.43,-3.411 0.05,0.127 -0.029,1.032 -0.178,1.379 -1.561,3.639 -2.916,9.529 -1.722,12.693 0.493,1.308 2.091,1.87 3.167,1.041 l 2.308,-1.777 -0.626,7.416 -0.104,3.85 -5.429,0.392 5.342,13.235 6.16,19.82 0.068,-22.101 c 1.052,0.806 2.468,0.699 3.477,-0.121 1.286,-1.045 2.321,-2.681 2.546,-4.406 l 1.173,-9.008 1.509,2.899 -0.339,47.549 0.036,6.301 6.99,-5.904 0.228,-0.991 0.022,-22.545 c 0.268,-2.193 2.036,-3.533 4.233,-2.983 1.724,0.332 3.915,1.761 3.928,3.759 l 0.102,15.596 13.336,-11.155 c 0.31,-0.259 0.818,-0.538 1.124,-0.687 l 0.001,7.843 -3.962,3.236 3.962,6.246 v 7 l -0.577,-0.135 -6.257,-10.689 -5.396,4.541 11.224,18.267 0.285,0.691 H 8.642 l -0.336,-0.635 -9.382,-15.573 -5.214,4.394 6.544,10.623 0.595,1.191 -5.139,0.002 -5.567,-8.807 -4.844,4.095 1.689,3.431 0.489,1.279 h -10.293 c -3.975,-7.902 -6.779,-16.153 -9.488,-24.672 l -5.795,-18.225 c -2.447,-7.696 -6.222,-14.534 -10.306,-21.474 l -8.491,-14.426 C -67.679,113.92 -74.646,90.174 -77.176,69.075 l -2.692,-22.443 -2.745,-20.707 c -0.726,-5.475 -2.541,-10.438 -4.522,-15.554 l -3.199,-8.256 c -0.797,-2.058 -0.853,-4.434 -0.853,-6.74 l 0.037,-28.62 1.246,2.794 2.05,4.937 v 0.034 L 14.38,-25.66 v 20.377 l -20.87,0.04 -0.027,-4.469 -74.964,-0.017 4.076,11.286 2.281,8.443 2.595,-10e-4 0.439,0.705 c 0.895,-0.705 2.068,-0.996 3.202,-0.959 l 6.424,0.211 2.771,-0.189 L 5.554,9.75 0.688,0.839 Z"
       style="fill:#99a1a3;fill-opacity:1;fill-rule:nonzero;stroke:none"
       transform="matrix(1.3333333,0,0,-1.3333333,428.84272,375.36287)"
       clip-path="url(#clipPath15)" />
    <path
       id="path16"
       d="m 0,0 c 2.086,-1.929 4.661,-2.731 7.541,-3.049 2.551,-0.281 5.119,-1.144 7.674,-0.727 l 7.24,1.074 V -8.861 L 4.61,-8.692 c -0.31,0 -0.864,-0.463 -0.84,-0.732 0.023,-0.27 0.533,-0.641 0.859,-0.642 l 17.827,-0.076 -0.001,-9.497 -23.982,-0.102 c 0.689,1.699 1.01,3.753 0.945,5.663 -0.089,2.605 -1.95,4.282 -4.612,4.002 -2.71,-0.285 -5.348,-1.889 -7.131,-3.974 l -2.528,-2.954 0.428,5.671 c -0.182,3.899 -0.984,7.598 -1.835,11.255 z"
       style="fill:#dbe0e3;fill-opacity:1;fill-rule:nonzero;stroke:none"
       transform="matrix(1.3333333,0,0,-1.3333333,418.07579,289.7626)"
       clip-path="url(#clipPath17)" />
    <path
       id="path18"
       d="m 0,0 -102.234,0.146 -2.049,-4.937 -1.247,-2.794 -4.146,-0.05 c -0.016,0.136 -0.025,0.216 -0.025,0.216 l -89.238,-0.19 -0.069,7.696 -19.301,0.197 c -12.727,0.865 -23.199,10.71 -24.832,23.265 l -0.203,-0.537 -0.056,-17.533 c 0.888,-13.663 12.422,-24.127 26.217,-24.113 l 24.774,0.027 74.54,0.002 c 0.003,-0.032 0.006,-0.064 0.009,-0.096 H 0 Z"
       style="fill:#40b0b3;fill-opacity:1;fill-rule:nonzero;stroke:none"
       transform="matrix(1.3333333,0,0,-1.3333333,448.01592,409.5758)"
       clip-path="url(#clipPath19)" />
    <path
       id="path20"
       d="m 187.34632,258.8394 0.30267,0.40667 -3.672,7.90933 c -0.252,0.54534 -0.444,1.50267 -0.35333,2.08667 -2.14,-0.97867 -4.732,-0.22133 -6.19067,1.76267 -2.54667,3.464 -2.32533,10.20933 -1.45733,14.43466 -0.32,0.0773 -0.736,0.684 -0.888,1.00267 l -3.75467,7.872 c -0.19467,0.408 -0.84533,1.13067 -1.23067,1.328 -1.57066,-0.752 -3.86266,-0.768 -5.20533,0.148 -1.656,1.13067 -2.504,3.15067 -2.05333,5.288 0.54,2.56267 1.23066,5.17467 2.364,7.36267 l -1.04534,0.66266 -20.028,42.032 c -2.30933,4.31734 -3.30666,8.64267 -4.056,13.20934 -0.99466,6.068 -0.36,12.29733 2.81067,17.77999 4.36933,7.552 11.98667,11.96934 20.71333,11.96534 l 19.10134,0.0747 -0.016,14.85067 -25.75067,0.18267 c -16.96933,-1.15467 -30.93067,-14.28 -33.108,-31.02133 -0.876,-6.73467 0.332,-12.956 3.25867,-19.21334 l 43.24533,-92.44933 z"
       style="fill:#fcfcfc;fill-opacity:1;fill-rule:nonzero;stroke:none;stroke-width:1.33333" />
    <path
       id="path21"
       d="m 0,0 -18.073,-38.001 c -0.341,-0.548 -0.649,-0.963 -0.947,-1.256 l -12.76,-5.756 25.498,54.588 z"
       style="fill:#99a1a3;fill-opacity:1;fill-rule:nonzero;stroke:none"
       transform="matrix(1.3333333,0,0,-1.3333333,212.70632,206.49701)"
       clip-path="url(#clipPath22)" />
    <path
       id="path23"
       d="m 0,0 c 2.863,-1.029 5.174,-6.551 5.941,-9.675 l 0.333,-1.359 0.883,-5.076 1.605,5.165 0.551,1.298 c 0.542,1.279 1.521,2.552 2.761,3.393 1.734,1.174 4.073,0.39 5.045,-1.409 l 1.069,-1.982 0.319,-1.369 c 0.85,-3.658 1.653,-7.357 1.834,-11.255 l -0.427,-5.672 2.527,2.955 c 1.784,2.084 4.422,3.689 7.131,3.973 2.662,0.28 4.524,-1.396 4.612,-4.002 0.065,-1.909 -0.256,-3.964 -0.945,-5.662 l -0.533,-1.315 c -1.722,-3.403 -3.892,-6.719 -6.205,-10.033 l 3.753,0.332 c 0.984,0.087 2.185,-0.807 2.608,-1.495 1.542,-2.507 -1.614,-5.935 -4.122,-8.077 l -1.294,-1.411 c -0.414,-0.048 -0.985,-0.262 -1.436,-0.501 -6.416,-4.875 -17.635,-7.422 -25.33,-5.624 -4.971,1.161 -9.722,2.906 -14.267,5.197 l -1.686,1.004 -1.836,1.735 c -1.486,1.375 -2.574,3.119 -3.592,4.862 -1.108,2.143 -2.063,4.466 -2.068,7.014 1.236,1.775 2.999,2.108 5.276,1.294 0.107,0.629 -0.055,1.313 -0.267,2.013 l -1.812,5.985 -0.477,2.242 c -0.432,2.035 -0.247,4.229 -0.003,6.231 0.207,1.703 1.324,3.183 2.51,3.789 1.625,0.831 3.148,0.926 4.857,0.213 1.408,-0.588 2.93,-1.583 3.843,-2.752 l 3.98,-5.095 -0.348,12.659 0.456,5.926 C -4.528,-3.558 -2.489,0.381 0,0 m 0.399,-38.882 2.605,10.518 c 0.246,0.994 0.223,2.095 -1.124,2.589 l -1.438,-5.581 -1.126,2.67 c -0.082,0.194 -0.764,0.392 -0.896,0.224 -0.993,-1.262 0.872,-7.279 1.979,-10.42 m 5.152,-14.709 c 0.312,-0.778 1.265,-1.299 1.962,-0.875 2.607,1.585 4.42,3.701 6.069,6.245 1.831,3.413 3.211,6.921 4.543,10.612 l -0.279,0.953 c -0.255,0.87 -2.669,-1.194 -3.994,-3.504 l 0.063,8.796 -0.86,0.084 -0.97,-6.279 -0.869,-8.546 c -0.223,-2.19 -2.082,-3.672 -4.209,-3.617 -1.802,2.408 -1.025,5.95 -0.855,8.883 l 0.393,6.782 c 0.014,0.232 -0.312,0.682 -0.433,0.822 -0.081,0.093 -0.633,-0.187 -0.662,-0.307 l -0.945,-3.94 c -1.651,-6.88 -1.76,-9.116 1.046,-16.109 m -16.626,6.329 c 1.667,-3.639 5.281,-9.048 8.989,-8.467 l 0.739,2.753 1.428,-1.723 c 0.193,-0.233 0.979,-0.603 1.125,-0.338 0.145,0.266 0.3,1.092 0.202,1.38 -2.012,5.904 -4.745,11.303 -7.958,16.616 -0.184,0.304 -0.939,0.735 -1.202,0.563 -1.892,-1.24 2.72,-9.305 3.233,-13.456 -1.191,0.38 -1.788,1.041 -2.415,1.945 l -4.215,6.075 c -0.208,0.3 -1.047,0.543 -1.382,0.454 -0.335,-0.089 -0.696,-1.104 -0.52,-1.489 z m 27.126,-4.796 c 2.286,1.945 5.331,6.384 4.194,6.836 -0.199,0.079 -0.808,0.001 -1.02,-0.213 l -5.171,-5.22 -2.932,-2.391 c -0.235,-0.191 -0.541,-0.806 -0.401,-1.037 0.743,-1.234 3.432,0.41 5.33,2.025"
       style="fill:#7da34c;fill-opacity:1;fill-rule:nonzero;stroke:none"
       transform="matrix(1.3333333,0,0,-1.3333333,371.72072,275.1806)"
       clip-path="url(#clipPath24)" />
    <path
       id="path25"
       d="M 0,0 C 0.597,1.147 1.81,2.098 2.841,2.906 3.842,3.083 4.493,3.117 5.504,2.879 L 6.519,1.072 C 6.479,-2.856 6.59,-6.601 6.16,-10.416 5.762,-14.185 4.465,-17.111 1.887,-20.309 l 3.406,2.044 c 1.332,0.8 2.936,1.443 4.451,1.388 1.785,-0.065 2.948,-1.504 2.627,-3.225 l -0.537,-2.867 c -0.881,-2.935 -2.021,-5.584 -3.706,-8.384 1.636,0.394 3.29,0.481 4.584,-0.394 1.253,-0.848 1.364,-2.297 0.652,-3.569 -6.883,-12.286 -23.638,-12.162 -28.51,-7.22 l -3.218,3.267 c -1.878,1.905 -2.67,4.199 -2.638,6.917 0.036,2.953 -2.762,5.732 -1.729,9.524 0.083,0.307 0.39,0.782 0.61,0.927 0.969,0.641 3.213,-1.569 4.43,-3.411 0.05,0.126 -0.029,1.032 -0.178,1.379 -1.561,3.639 -2.916,9.529 -1.722,12.693 0.493,1.308 2.091,1.87 3.167,1.041 l 2.308,-1.777 -0.626,7.416 -0.104,3.85 c -0.122,4.533 2.629,8.653 6.141,11.346 1.052,0.806 2.468,0.699 3.477,-0.121 1.286,-1.045 2.321,-2.681 2.546,-4.406 l 1.173,-9.008 z"
       style="fill:#5c8538;fill-opacity:1;fill-rule:nonzero;stroke:none"
       transform="matrix(1.3333333,0,0,-1.3333333,408.46806,181.89741)"
       clip-path="url(#clipPath26)" />
    <path
       id="path27"
       d="M 0,0 -1.07,1.982 C -2.041,3.781 -4.381,4.565 -6.114,3.391 -7.354,2.55 -8.333,1.277 -8.876,-0.002 l -3.372,-0.028 c -0.766,3.124 -3.077,8.646 -5.94,9.675 l 8.173,17.504 29.109,-0.031 -4.898,-8.804 -19.349,-0.008 c -0.328,0 -0.892,-0.604 -0.715,-0.838 0.141,-0.188 0.573,-0.414 0.872,-0.526 L 6.182,16.954 2.504,9.689 -1.744,9.642 C -2.018,9.639 -2.598,8.988 -2.395,8.835 L -1.659,8.279 9.902,8.31 5.772,0.059 Z"
       style="fill:#dbe0e3;fill-opacity:1;fill-rule:nonzero;stroke:none"
       transform="matrix(1.3333333,0,0,-1.3333333,395.97192,288.0406)"
       clip-path="url(#clipPath28)" />
    <path
       id="path29"
       d="m 0,0 1.687,-1.004 c 4.544,-2.291 9.295,-4.037 14.267,-5.198 7.694,-1.797 18.913,0.749 25.329,5.624 0.451,0.24 1.022,0.453 1.436,0.501 l 7.33,-0.104 -6.016,-11.224 -57.771,-0.004 5.212,11.455 z"
       style="fill:#dbe0e3;fill-opacity:1;fill-rule:nonzero;stroke:none"
       transform="matrix(1.3333333,0,0,-1.3333333,351.35606,345.3134)"
       clip-path="url(#clipPath30)" />
    <path
       id="path31"
       d="M 0,0 C 2.508,2.142 5.663,5.57 4.122,8.077 3.699,8.765 2.498,9.659 1.513,9.572 L -2.239,9.24 c 2.313,3.314 4.482,6.631 6.204,10.033 l 16.289,-0.07 -4.052,-7.672 -6.58,-0.007 c -0.234,0 -0.886,-0.625 -0.724,-0.77 l 0.669,-0.6 16.059,-0.073 -5.663,-10.226 z"
       style="fill:#dbe0e3;fill-opacity:1;fill-rule:nonzero;stroke:none"
       transform="matrix(1.3333333,0,0,-1.3333333,410.04099,343.53407)"
       clip-path="url(#clipPath32)" />
    <path
       id="path33"
       d="m 349.25192,362.34007 -0.644,3.20533 -2.736,8.27734 -20.236,-0.536 3.04134,-11.25733 3.46,0.001 0.58533,-0.94 c 1.19333,0.94 2.75733,1.328 4.26933,1.27867 l 8.56534,-0.28134 z"
       style="fill:#c4c7cc;fill-opacity:1;fill-rule:nonzero;stroke:none;stroke-width:1.33333" />
    <path
       id="path34"
       d="m 0,0 c -1.478,-2.197 -1.707,-4.804 -1.381,-7.378 l -1.202,0.17 -13.267,-0.022 3.493,7.286 z"
       style="fill:#dbe0e3;fill-opacity:1;fill-rule:nonzero;stroke:none"
       transform="matrix(1.3333333,0,0,-1.3333333,422.51299,265.53674)"
       clip-path="url(#clipPath35)" />
    <path
       id="path36"
       d="m 0,0 c -1.84,-1.63 -0.283,-6.476 0.901,-7.974 l -8.157,0.033 4.097,8.199 2.904,0.078 z"
       style="fill:#dbe0e3;fill-opacity:1;fill-rule:nonzero;stroke:none"
       transform="matrix(1.3333333,0,0,-1.3333333,415.33952,277.35634)"
       clip-path="url(#clipPath37)" />
    <path
       id="path38"
       d="m 359.93192,301.81274 4.84134,-10.08533 0.46533,16.87866 z"
       style="fill:#dbe0e3;fill-opacity:1;fill-rule:nonzero;stroke:none;stroke-width:1.33333" />
    <path
       id="path39"
       d="m 348.90886,343.00087 -0.42266,0.40934 -7.532,-0.0867 3.16533,-6.80533 c 1.35733,2.324 2.808,4.64933 4.78933,6.48266"
       style="fill:#dbe0e3;fill-opacity:1;fill-rule:nonzero;stroke:none;stroke-width:1.33333" />
    <path
       id="path40"
       d="m 210.63046,267.19554 -2.72266,15.72267 -4.39334,30.94533 c -1.92266,13.544 -4.116,27.31333 -9.80933,39.524 0.98,-6.97067 0.856,-10.58534 -3.74133,-16.89067 -2.81067,-3.85733 -8.55067,-0.92 -12.696,2.38933 -2.29067,-4.644 -6.352,-11.944 -10.77067,-12.76533 -2.06,-0.38267 -4.16667,1.236 -4.94667,2.94267 -1.62933,-1.736 -2.788,-4.284 -2.40666,-6.76534 0.50533,-3.288 4.91733,-4.28133 7.196,-3.38 l 5.92533,2.344 -4.044,-7.00533 -3.01333,-5.816 c -1.13334,-2.18933 -1.82534,-4.80133 -2.36534,-7.36267 -0.44933,-2.13733 0.39867,-4.15866 2.05467,-5.288 1.34267,-0.916 3.63467,-0.9 5.20533,-0.14933 2.052,0.984 4.48267,2 6.01467,3.68133 l 3.96533,4.35067 0.29467,-0.23067 -2.45067,-8.51066 -1.95066,-9.492 c -0.868,-4.22533 -1.08934,-10.97067 1.45733,-14.43467 1.45867,-1.984 4.05067,-2.74133 6.19067,-1.76266 1.72533,0.788 3.34533,2.30666 4.45466,3.88266 3.17467,4.50267 4.896,9.72934 6.68267,15.12933 0.64,-8.32666 1.43333,-17.22933 7.336,-22.66666 2.12667,-1.95733 5.06267,-1.892 7.03467,0.27333 z m -30.224,37.11866 0.18667,-0.66666 z"
       style="fill:#5c8538;fill-opacity:1;fill-rule:nonzero;stroke:none;stroke-width:1.33333" />
    <path
       id="path41"
       d="m 0,0 -0.811,-1.439 c -4.921,-8.025 -8.893,-16.337 -12.12,-25.247 -3.176,-8.773 -5.736,-17.567 -7.299,-26.592 l -1.124,1.001 c -1.479,1.625 -3.681,1.673 -5.276,0.205 -4.427,-4.077 -5.022,-10.755 -5.502,-17 -1.34,4.05 -2.631,7.97 -5.012,11.347 l 0.845,1.175 20.693,41.44 c 0.526,1.054 1.178,2.31 1.382,3.362 l 1.776,9.166 -1.862,3.144 5.141,10.903 0.625,0.619 C -8.053,10.117 -6.835,8.239 -5.761,6.547 -5.971,4.319 -5.776,1.763 -3.461,0.551 -2.615,0.108 -1.1,0.153 0,0"
       style="fill:#c4c7cc;fill-opacity:1;fill-rule:nonzero;stroke:none"
       transform="matrix(1.3333333,0,0,-1.3333333,237.60419,196.15847)"
       clip-path="url(#clipPath42)" />
    <path
       id="path43"
       d="m 193.70566,353.38767 c -0.20133,1.43334 -1.52266,3.02267 -2.16133,4.34 l -15.22933,1.56133 -7.30534,1.16134 c -4.20133,0.66666 -8.55866,0.70266 -12.23333,-1.532 -2.90267,-1.764 -4.64933,-4.85067 -4.724,-8.032 l -0.076,-3.228 0.0547,-0.47867 c 0.21066,-3.20133 1.71333,-6.368 4.86933,-7.41066 1.59333,-0.0653 3.22133,0.38666 5.072,1.17466 -0.72533,-2.46266 -1.32933,-5.02933 -1.336,-7.59466 -0.003,-1.33867 0.35733,-3.068 0.91333,-4.28534 0.78,-1.70666 2.888,-3.32533 4.948,-2.94266 4.41867,0.82133 8.47867,8.12133 10.77067,12.76533 4.14533,-3.30933 9.884,-6.24667 12.696,-2.38933 4.59733,6.30533 4.72,9.91866 3.74133,16.89066"
       style="fill:#7da34c;fill-opacity:1;fill-rule:nonzero;stroke:none;stroke-width:1.33333" />
    <path
       id="path44"
       d="m 152.05246,350.88567 c 0.0747,3.18267 1.82134,6.268 4.724,8.03333 3.67467,2.23334 8.032,2.19867 12.23334,1.53067 l 7.30533,-1.16 15.22933,-1.56267 -5.23466,10.77867 c -1.94134,4 -2.95067,8.10533 -3.36267,12.59333 l -10.80133,-0.26133 c -6.66534,-0.16133 -12.832,-2.768 -17.48,-7.50933 -5.94934,-6.068 -6.75067,-15.49867 -2.61334,-22.44267"
       style="fill:#c4c7cc;fill-opacity:1;fill-rule:nonzero;stroke:none;stroke-width:1.33333" />
    <path
       id="path45"
       d="m 182.70379,394.16434 -19.10133,-0.0747 c -8.72667,0.004 -16.344,-4.412 -20.71333,-11.964 -3.17067,-5.484 -3.80534,-11.712 -2.81067,-17.78134 -0.084,12.79334 10.84,23.95467 24.24267,23.96534 l 18.42,0.0133 z"
       style="fill:#99a1a3;fill-opacity:1;fill-rule:nonzero;stroke:none;stroke-width:1.33333" />
    <path
       id="path46"
       d="m 160.63632,333.3486 c 0.007,2.56534 0.61067,5.13333 1.336,7.596 -1.85066,-0.78933 -3.47866,-1.24133 -5.072,-1.176 l 2.94667,-5.82533 c 0.084,-0.172 0.77733,-0.71333 0.78933,-0.59467"
       style="fill:#c4c7cc;fill-opacity:1;fill-rule:nonzero;stroke:none;stroke-width:1.33333" />
    <path
       id="path47"
       d="m 166.33952,318.9182 1.88134,-4.66133 4.04533,7.00533 z"
       style="fill:#c4c7cc;fill-opacity:1;fill-rule:nonzero;stroke:none;stroke-width:1.33333" />
    <path
       id="path48"
       d="m 151.97619,347.6586 0.0533,-0.47866 z"
       style="fill:#c4c7cc;fill-opacity:1;fill-rule:nonzero;stroke:none;stroke-width:1.33333" />
    <path
       id="path49"
       d="m 0,0 -18.198,0.243 c -0.642,0.04 -0.522,2.308 0.192,2.393 L 0.583,2.638 C 0.48,1.608 0.334,0.987 0,0"
       style="fill:#c4c7cc;fill-opacity:1;fill-rule:nonzero;stroke:none"
       transform="matrix(1.3333333,0,0,-1.3333333,416.10539,371.04967)"
       clip-path="url(#clipPath50)" />
    <path
       id="path51"
       d="M 0,0 1.862,-3.144 0.086,-12.31 c -0.204,-1.052 -0.856,-2.308 -1.382,-3.362 l -20.694,-41.44 -0.844,-1.175 c -0.833,1.182 -2.047,2.321 -3.342,2.912 -0.067,0.438 0.076,1.157 0.266,1.565 l 2.753,5.933 -0.227,0.304 c 0.298,0.293 0.606,0.708 0.948,1.256 l 18.072,38.001 c 0.072,0.068 0.519,0.613 0.685,0.944 z"
       style="fill:#dbe0e3;fill-opacity:1;fill-rule:nonzero;stroke:none"
       transform="matrix(1.3333333,0,0,-1.3333333,218.52446,195.40914)"
       clip-path="url(#clipPath52)" />
    <path
       id="path53"
       d="m 177.92606,294.93194 -1.80933,4.38933 c -1.532,-1.68 -3.96133,-2.696 -6.01467,-3.68 0.38534,-0.196 1.036,-0.91866 1.23067,-1.32666 l 3.75467,-7.872 c 0.152,-0.31867 0.568,-0.92667 0.888,-1.004 z"
       style="fill:#dbe0e3;fill-opacity:1;fill-rule:nonzero;stroke:none;stroke-width:1.33333" />
    <path
       id="path54"
       d="m 379.12139,346.63567 c -3.74,-9.32533 -3.596,-12.30533 -1.39333,-21.47866 l 1.26,-5.25334 c 0.0387,-0.16 0.77333,-0.53466 0.88133,-0.40933 0.16134,0.18667 0.596,0.78533 0.57867,1.09467 l -0.524,9.044 c -0.22667,3.91066 -1.26267,8.63333 1.13867,11.84266 2.836,0.0747 5.316,-1.90133 5.612,-4.82133 l 1.16,-11.39467 1.292,-8.37333 1.14666,0.112 -0.084,11.728 c 1.76667,-3.08 4.98667,-5.832 5.32667,-4.67067 l 0.372,1.27067 c -1.77733,4.92 -3.616,9.59733 -6.05733,14.148 -2.19867,3.392 -4.616,6.21467 -8.092,8.328 -0.92934,0.56533 -2.20134,-0.12933 -2.61734,-1.16667"
       style="fill:#5c8538;fill-opacity:1;fill-rule:nonzero;stroke:none;stroke-width:1.33333" />
    <path
       id="path55"
       d="m 356.95379,338.1962 -2.63466,-5.75066 c -0.23467,-0.512 0.24666,-1.86534 0.69333,-1.98534 0.44667,-0.11866 1.56533,0.20667 1.84267,0.60534 l 5.62,8.10133 c 0.836,1.204 1.632,2.08533 3.22,2.592 -0.684,-5.53467 -6.83334,-16.28667 -4.31067,-17.94133 0.35067,-0.22934 1.35867,0.34533 1.60267,0.75066 4.284,7.084 7.928,14.28267 10.61066,22.15467 0.132,0.38533 -0.076,1.48533 -0.26933,1.84 -0.19467,0.35466 -1.24133,-0.14 -1.5,-0.45067 l -1.904,-2.29733 -0.98533,3.672 c -4.944,0.77333 -9.76267,-6.43734 -11.98534,-11.29067"
       style="fill:#5c8538;fill-opacity:1;fill-rule:nonzero;stroke:none;stroke-width:1.33333" />
    <path
       id="path56"
       d="m 372.25326,327.023 c -1.476,-4.188 -3.96266,-12.21066 -2.63866,-13.89333 0.176,-0.22267 1.08533,0.04 1.19466,0.29867 l 1.5,3.56133 1.91734,-7.44267 c 1.79733,0.65867 1.82666,2.12667 1.49866,3.452 z"
       style="fill:#5c8538;fill-opacity:1;fill-rule:nonzero;stroke:none;stroke-width:1.33333" />
    <path
       id="path57"
       d="m 393.12139,344.5914 c -2.53066,2.15334 -6.11466,4.34533 -7.10666,2.7 -0.18534,-0.30933 0.22266,-1.128 0.53466,-1.38266 l 3.90934,-3.188 6.896,-6.96 c 0.28266,-0.28534 1.09333,-0.39067 1.35866,-0.284 1.51734,0.60266 -2.54266,6.52133 -5.592,9.11466"
       style="fill:#5c8538;fill-opacity:1;fill-rule:nonzero;stroke:none;stroke-width:1.33333" />
    <path
       id="path58"
       d="m 383.40299,289.77367 -2.13866,6.888 -1.17867,-6.76933 z"
       style="fill:#dbe0e3;fill-opacity:1;fill-rule:nonzero;stroke:none;stroke-width:1.33333" />
    <path
       id="path59"
       d="m 384.13739,288.04327 -0.73466,1.73067 -3.31734,0.11867 -0.444,-1.812 z"
       style="fill:#99a1a3;fill-opacity:1;fill-rule:nonzero;stroke:none;stroke-width:1.33333" />
    <path
       id="path60"
       d="m 176.11646,299.3218 1.80934,-4.38933 2.45066,8.50933 0.21734,0.20667 -0.188,0.66533 -0.32267,-0.64 z"
       style="fill:#c4c7cc;fill-opacity:1;fill-rule:nonzero;stroke:none;stroke-width:1.33333" />
    <path
       id="path153"
       d="m 288.82712,383.95407 c 4.772,0.54267 8.59734,-0.652 12.53067,-2.60133 l 0.50933,-1.436 c 0.10667,-0.3 -0.804,-0.62933 -1.10133,-0.76667 l -3.164,-1.44533 c -2.07067,-0.53467 -4.89333,1.22 -6.192,2.90133 z"
       style="fill:#9cd1c9;fill-opacity:1;fill-rule:nonzero;stroke:none;stroke-width:1.33333" />
    <path
       id="path154"
       d="m 213.40686,374.68647 c -0.14933,3.476 7.148,5.62133 12.08667,5.37067 l -3.18933,-4.78933 c -0.69867,-1.05067 -3.26,-2.28934 -4.52,-2.07334 -1.564,0.26934 -2.94,0.836 -4.37734,1.492"
       style="fill:#9cd1c9;fill-opacity:1;fill-rule:nonzero;stroke:none;stroke-width:1.33333" />
    <path
       id="path155"
       d="m 279.49019,394.55007 c 4.41734,-0.0773 11.496,-1.75866 11.68267,-4.89733 -1.172,-1.20667 -3.47867,-2.576 -4.928,-2.09333 -3.23867,1.08133 -5.08533,3.80533 -6.75467,6.99066"
       style="fill:#9cd1c9;fill-opacity:1;fill-rule:nonzero;stroke:none;stroke-width:1.33333" />
    <path
       id="path156"
       d="m 282.90686,382.8046 c 3.89734,-1.28933 9.196,-6.11066 8.32134,-7.844 -0.43334,-0.86133 -2.972,-2.45733 -4.37067,-1.828 -3.03333,1.364 -3.592,5.664 -3.95067,9.672"
       style="fill:#9cd1c9;fill-opacity:1;fill-rule:nonzero;stroke:none;stroke-width:1.33333" />
    <path
       id="path157"
       d="m 224.44072,386.0618 c 0.236,3.508 5.60534,6.352 9.71334,7.03867 -0.752,-2.71334 -1.67734,-5.06 -3.27334,-7.03333 -1.70666,-2.11334 -4.67733,-1.872 -6.44,-0.005"
       style="fill:#9cd1c9;fill-opacity:1;fill-rule:nonzero;stroke:none;stroke-width:1.33333" />
    <path
       id="path158"
       d="m 229.65846,378.48594 3.53334,1.888 c -0.376,-4.34933 -1.38934,-9.508 -4.95867,-9.92133 -0.93733,-0.108 -2.59467,1.18 -3.11867,1.99067 0.636,2.56533 2.244,4.81466 4.544,6.04266"
       style="fill:#9cd1c9;fill-opacity:1;fill-rule:nonzero;stroke:none;stroke-width:1.33333" />
  </g>
</svg>
