<?xml version="1.0" encoding="UTF-8" standalone="no"?>
<!-- Created with Inkscape (http://www.inkscape.org/) -->

<svg
   version="1.1"
   id="svg1"
   width="94.583725"
   height="101.7966"
   viewBox="0 0 94.583726 101.7966"
   xmlns="http://www.w3.org/2000/svg"
   xmlns:svg="http://www.w3.org/2000/svg">
  <defs
     id="defs1">
    <clipPath
       clipPathUnits="userSpaceOnUse"
       id="clipPath169">
      <path
         d="M -10.590801,-12.8475 H 60.347201 V 63.585502 H -10.590801 Z"
         id="path169" />
    </clipPath>
  </defs>
  <g
     id="g1"
     transform="translate(-78.944,-364.72541)">
    <path
       id="path167"
       d="m 0,0 c 0.226,-0.091 0.659,-1.062 0.659,-1.486 l 0.009,-9.521 3.821,-0.743 c 5.324,-1.034 5.208,-7.823 8.036,-7.666 2.557,0.141 2.284,4.18 5.241,6.45 1.781,1.367 4.064,1.471 6.4,1.778 l 0.016,10.929 1.025,0.112 c 0.561,-0.286 1.689,-0.773 2.281,-0.884 0.389,-0.284 0.829,-1.243 0.832,-1.9 l 0.046,-8.432 c 5.331,-4.633 3.413,-10.683 0.278,-16.754 l -4.705,-1.638 c -7.396,-2.575 -12.383,-5.885 -20.594,-1.022 -2.099,1.243 -4.21,2.476 -6.476,2.824 -3.598,4.94 -5.275,12.274 -0.401,16.536 l -0.132,10.17 1.496,0.356 C -1.628,-0.792 -0.48,-0.27 0,0"
       style="fill:#eb1f26;fill-opacity:1;fill-rule:nonzero;stroke:none"
       transform="matrix(1.3333333,0,0,-1.3333333,109.12147,418.05093)" />
    <path
       id="path168"
       d="m 0,0 -0.077,-5.265 3.478,0.72 c 1.676,0.347 3.858,0.436 5.51,0.183 2.266,-0.348 4.377,-1.581 6.476,-2.824 8.211,-4.863 13.198,-1.553 20.594,1.022 l 4.705,1.638 c 2.599,0.904 5.504,0.317 8.165,-0.561 l 0.013,3.858 c 6.093,0.328 11.34,-4.922 11.483,-11.192 l -71.43,-0.341 C -12.154,-2.007 0,0 0,0"
       style="fill:#e3ede8;fill-opacity:1;fill-rule:nonzero;stroke:none"
       transform="matrix(1.3333333,0,0,-1.3333333,93.065067,449.506)"
       clip-path="url(#clipPath169)" />
    <path
       id="path170"
       d="m 0,0 -1.684,7.71 c 3.298,3.381 4.686,8.002 3.74,12.476 -0.704,3.332 -3.013,6.678 -6.723,6.897 -0.164,-6.279 -3.165,-11.856 -9.508,-13.164 0.503,-1.212 1.572,-3.365 1.248,-4.658 l -0.698,-5.827 -0.011,-0.016 c -0.944,-3.795 -2.918,-6.921 -6.257,-8.798 0.226,-0.091 0.659,-1.062 0.66,-1.486 l 0.009,-9.521 3.821,-0.742 c 5.324,-1.035 5.207,-7.823 8.035,-7.667 2.558,0.141 2.284,4.18 5.241,6.45 1.782,1.367 4.064,1.471 6.4,1.778 l 0.016,10.929 1.025,0.112 C 2.886,-4.288 0.924,-2.564 0,0"
       style="fill:#fc9c69;fill-opacity:1;fill-rule:nonzero;stroke:none"
       transform="matrix(1.3333333,0,0,-1.3333333,135.6448,410.87773)" />
    <path
       id="path171"
       d="m 0,0 -1.343,-0.709 -0.022,-9.817 c -4.873,-4.262 -3.197,-11.596 0.401,-16.536 -1.651,0.253 -3.834,0.163 -5.509,-0.183 l -3.479,-0.72 0.077,5.265 c 0.062,4.177 -0.029,8.435 0.244,12.57 C -9.263,-4.572 -5.187,-0.945 0,0"
       style="fill:#fa9e6b;fill-opacity:1;fill-rule:nonzero;stroke:none"
       transform="matrix(1.3333333,0,0,-1.3333333,106.23107,419.2384)" />
    <path
       id="path172"
       d="m 0,0 -0.01,-3.139 -0.015,-4.649 -0.012,-3.858 c -2.661,0.878 -5.566,1.466 -8.165,0.561 3.135,6.071 5.053,12.122 -0.278,16.754 l -0.046,8.432 c -0.003,0.657 -0.443,1.617 -0.832,1.9 4.754,-0.885 8.112,-3.961 9.04,-8.839 C 0.105,4.938 0.007,2.356 0,0"
       style="fill:#fa9c69;fill-opacity:1;fill-rule:nonzero;stroke:none"
       transform="matrix(1.3333333,0,0,-1.3333333,158.24933,440.76053)" />
    <path
       id="path173"
       d="m 0,0 c -6.085,2.826 -13.635,1.101 -17.892,-4.117 -2.674,-3.279 -3.538,-7.338 -3.055,-11.604 -2.122,-0.481 -4,-1.315 -5.183,-3.069 -2.314,-3.436 -1.598,-8.19 10e-4,-11.048 1.599,-2.857 5.513,-3.436 8.482,-2.686 2.364,0.596 4.141,2.558 4.773,4.912 l 0.968,3.608 c 0.324,1.293 -0.745,3.446 -1.248,4.659 6.343,1.307 9.344,6.884 9.508,13.163 3.71,-0.219 6.019,-3.565 6.723,-6.897 1.218,0.745 2.185,2.345 2.328,3.904 C 5.763,-5.291 3.627,-1.684 0,0"
       style="fill:#423d36;fill-opacity:1;fill-rule:nonzero;stroke:none"
       transform="matrix(1.3333333,0,0,-1.3333333,134.2832,366.52493)" />
    <path
       id="path174"
       d="M 0,0 0.01,3.137 Z"
       style="fill:#e3ede8;fill-opacity:1;fill-rule:nonzero;stroke:none"
       transform="matrix(1.3333333,0,0,-1.3333333,158.2356,444.94533)" />
  </g>
</svg>
