<?xml version="1.0" encoding="UTF-8" standalone="no"?>
<!-- Created with Inkscape (http://www.inkscape.org/) -->

<svg
   version="1.1"
   id="svg1"
   width="62.037506"
   height="129.94305"
   viewBox="0 0 62.037506 129.94305"
   xmlns="http://www.w3.org/2000/svg"
   xmlns:svg="http://www.w3.org/2000/svg">
  <defs
     id="defs1" />
  <g
     id="g1"
     transform="translate(-391.16864,-58.205241)">
    <path
       id="path147"
       d="m 0,0 c 0.63,1.452 2.266,3.023 3.909,3.372 2.283,0.485 4.619,-0.631 6.03,-2.163 1.662,-1.757 1.896,-4.032 0.42,-5.871 -0.644,-3.171 0.516,-6.118 2.246,-8.594 h 12.389 l -0.998,0.697 -1.112,0.491 c -0.251,0.11 0.273,0.924 0.41,1.163 1.584,2.76 1.104,6.353 -0.983,8.639 -1.267,1.388 -2.638,1.954 -4.597,2.198 L 17.433,2.9 C 17.296,4.342 15.984,6.895 14.708,7.801 11.497,10.085 7.259,10.047 3.806,8.63 0.302,7.192 -1.062,3.385 0,0"
       style="fill:#fcc752;fill-opacity:1;fill-rule:nonzero;stroke:none"
       transform="matrix(1.3333333,0,0,-1.3333333,414.94267,71.031067)" />
    <path
       id="path148"
       d="m 0,0 c -1.532,-3.533 1.445,-7.253 -2.156,-8.521 -2.983,-1.05 -5.6,-2.595 -7.657,-4.735 h 22.418 c -1.73,2.476 -2.89,5.423 -2.246,8.594 1.476,1.839 1.242,4.114 -0.42,5.871 C 8.528,2.741 6.192,3.857 3.909,3.372 2.266,3.023 0.63,1.452 0,0"
       style="fill:#fc9c69;fill-opacity:1;fill-rule:nonzero;stroke:none"
       transform="matrix(1.3333333,0,0,-1.3333333,414.94267,71.031067)" />
    <path
       id="path149"
       d="M 0,0 C -1.394,-5.503 -2.46,-10.996 -2.797,-16.735 L -3.51,-28.9 c -0.746,0.306 -1.893,0.406 -2.171,-0.016 -0.606,-4.76 2.518,-14.514 5.389,-14.23 0.43,0.043 1.307,0.618 1.537,1.063 l 3.079,5.965 c 0.934,-3.89 2.506,-9.364 5.467,-9.35 4.626,0.022 7.672,17.867 8.34,23.725 3.034,-0.98 5.985,-0.925 8.542,0.297 l 0.524,2.564 c 1.168,4.479 -2.282,10.113 -5.179,14.308 l 1.423,0.568 -1.465,-0.024 C 21.681,-4.034 21.322,-5.354 21.452,-4.511 15.065,-4.44 7.858,-3.959 2.395,-0.884 1.559,-0.413 0.721,-0.082 0,0"
       style="fill:#f28f5c;fill-opacity:1;fill-rule:nonzero;stroke:none"
       transform="matrix(1.3333333,0,0,-1.3333333,399.7236,127.52427)" />
    <path
       id="path150"
       d="m 0,0 c 0.721,-0.082 1.559,-0.413 2.395,-0.884 5.463,-3.075 12.67,-3.556 19.057,-3.627 -0.13,-0.843 0.229,0.477 0.524,0.481 l 1.465,0.024 c 4.184,0.564 7.734,2.733 10.267,6.074 0.864,1.558 1.538,3.257 2.089,5.117 l -1.661,0.735 -1.88,2.027 c -0.317,0.846 -0.81,2.707 -0.619,3.584 l 0.481,2.202 c -2.265,-0.444 -3.196,0.686 -4.309,2.174 -1.505,2.012 -2.51,4.931 -1.521,6.94 1.204,2.448 -0.418,2.61 -1.249,4.266 L 1.426,29.114 c -4.353,-3.8 -7.353,-9.078 -7.8,-15.045 -0.363,-5.11 1.621,-9.968 5.693,-12.986 z m 13.683,14.363 0.206,-0.016 c 1.871,1.928 4.234,3.418 6.823,4.381 2.333,0.867 4.715,-0.151 5.654,-2.351 C 27.627,13.423 27.693,9.633 25.385,6.97 24.374,5.802 22.659,4.574 21.368,4.147 L 22.059,2.798 C 20.602,3.499 19.395,3.644 18.192,2.3 L 17.838,3.173 C 17.775,3.329 17.129,2.964 16.951,2.948 L 14.451,2.716 11.945,2.532 C 10.783,2.447 8.786,2.033 7.791,2.537 L 5.39,3.751 4.784,2.157 4.534,4.648 C 3.632,5.558 2.735,6.605 2.172,7.65 c -1.452,2.697 -1.63,5.945 -0.639,8.818 0.635,1.843 2.116,3.829 4.424,3.801 2.07,-0.025 3.949,-1.442 5.264,-2.926 z"
       style="fill:#fa9c69;fill-opacity:1;fill-rule:nonzero;stroke:none"
       transform="matrix(1.3333333,0,0,-1.3333333,399.7236,127.52427)" />
    <path
       id="path151"
       d="m 0,0 c 0.831,-1.656 2.453,-1.818 1.249,-4.266 -0.989,-2.009 0.016,-4.928 1.521,-6.94 1.113,-1.488 2.044,-2.618 4.309,-2.174 L 6.598,-15.583 C 6.406,-16.459 6.9,-18.32 7.217,-19.166 l 1.88,-2.027 1.661,-0.735 2.432,0.658 c 2.516,2.331 2.356,5.98 -0.418,8.283 2.997,4.505 3.399,9.66 -0.798,12.951 z"
       style="fill:#fcc74f;fill-opacity:1;fill-rule:nonzero;stroke:none"
       transform="matrix(1.3333333,0,0,-1.3333333,433.10907,88.706933)" />
    <path
       id="path152"
       d="m 0,0 -1.423,-0.568 c 2.897,-4.194 6.346,-9.828 5.179,-14.308 L 3.231,-17.44 c 1.871,0.893 3.953,1.975 5.415,3.653 C 12.693,-9.141 11.5,-0.03 10.267,6.074 7.733,2.733 4.184,0.564 0,0"
       style="fill:#425991;fill-opacity:1;fill-rule:nonzero;stroke:none"
       transform="matrix(1.3333333,0,0,-1.3333333,430.9788,132.86573)" />
    <path
       id="path159"
       d="m 0,0 -0.206,0.015 c -2.11,-1.589 -4.801,-2.619 -7.564,-2.158 -2.358,0.393 -4.054,2.083 -4.586,4.263 -0.991,-2.873 -0.813,-6.12 0.639,-8.817 l 1.355,1.403 c 1.334,1.593 3.012,1.612 4.687,0.548 2.772,-1.761 0.752,-4.229 1.287,-7.25 l 0.992,3.064 c 0.671,2.071 1.881,3.371 4.236,3.042 2.893,-0.403 2.81,-2.342 3.805,-5.247 l 2.834,0.937 c 1.291,0.427 3.006,1.655 4.017,2.822 2.308,2.663 2.242,6.453 0.981,9.408 C 12.595,0.551 12.398,-0.857 11.368,-2.001 8.647,-5.023 1.971,-4.001 0,0"
       style="fill:#425991;fill-opacity:1;fill-rule:nonzero;stroke:none"
       transform="matrix(1.3333333,0,0,-1.3333333,418.24213,108.3944)" />
    <path
       id="path160"
       d="m 0,0 c 0.562,-1.045 1.459,-2.092 2.362,-3.003 l 0.25,-2.49 0.606,1.594 2.401,-1.215 c 0.995,-0.503 2.992,-0.089 4.154,-0.004 l 2.506,0.184 2.5,0.231 c 0.178,0.017 0.824,0.381 0.887,0.226 L 16.02,-5.35 c 1.202,1.344 2.41,1.198 3.867,0.497 l -0.691,1.35 -2.835,-0.937 C 15.367,-1.535 15.45,0.404 12.557,0.807 10.202,1.136 8.991,-0.164 8.321,-2.235 L 7.328,-5.299 C 6.794,-2.278 8.813,0.19 6.041,1.951 4.366,3.015 2.688,2.996 1.355,1.403 Z"
       style="fill:#f28f5c;fill-opacity:1;fill-rule:nonzero;stroke:none"
       transform="matrix(1.3333333,0,0,-1.3333333,402.62013,117.32373)" />
    <path
       id="path161"
       d="m 0,0 c 1.971,-4.001 8.647,-5.023 11.368,-2.001 1.03,1.144 1.227,2.552 1.109,4.031 C 11.539,4.229 9.156,5.247 6.823,4.38 4.234,3.417 1.871,1.927 0,0"
       style="fill:#0f0d57;fill-opacity:1;fill-rule:nonzero;stroke:none"
       transform="matrix(1.3333333,0,0,-1.3333333,418.24213,108.3944)" />
    <path
       id="path162"
       d="m 0,0 c 0.532,-2.18 2.228,-3.87 4.586,-4.263 2.764,-0.461 5.454,0.568 7.564,2.158 L 9.688,0.875 C 8.374,2.36 6.494,3.776 4.424,3.802 2.117,3.83 0.635,1.844 0,0"
       style="fill:#0f0d57;fill-opacity:1;fill-rule:nonzero;stroke:none"
       transform="matrix(1.3333333,0,0,-1.3333333,401.7672,105.5676)" />
  </g>
</svg>
