<?xml version="1.0" encoding="UTF-8" standalone="no"?>
<!-- Created with Inkscape (http://www.inkscape.org/) -->

<svg
   version="1.1"
   id="svg1"
   width="228.28896"
   height="86.612549"
   viewBox="0 0 228.28896 86.612548"
   xmlns="http://www.w3.org/2000/svg"
   xmlns:svg="http://www.w3.org/2000/svg">
  <defs
     id="defs1" />
  <g
     id="g1"
     transform="translate(-22.677572,-568.44171)">
    <path
       id="path140"
       d="M 0,0 -0.561,-1.143 -5.01,-6.014 c -0.959,-1.05 -1.534,-2.292 -1.541,-3.715 3.532,2.424 7.645,2.437 10.632,1.175 l 1.99,-0.445 8.626,-3.081 c 4.416,-1.578 8.799,0.226 12.557,2.75 4.241,2.847 8.924,2.818 13.239,0.178 4.574,-2.799 10.136,-4.134 15.212,-2.012 l -5.761,5.349 -6.188,5.745 67.525,-0.067 -10.473,-6.012 c 4.292,-0.228 7.6,-0.907 11.276,-3.053 l 8.43,8.95 2.186,-1.387 c 4.907,-2.924 9.685,-6.858 10.429,-12.683 l 0.56,-4.377 -159.587,0.005 c 0.084,10.261 7.947,18.429 17.704,18.599 z"
       style="fill:#e3ede8;fill-opacity:1;fill-rule:nonzero;stroke:none"
       transform="matrix(1.3333333,0,0,-1.3333333,72.714533,630.12227)" />
    <path
       id="path141"
       d="m 0,0 c -5.724,-4.514 -13.271,-5.761 -19.342,-2.231 0.661,4.896 -4.712,11.445 -8.718,15.391 -3.297,3.247 -6.676,6.26 -10.535,8.643 -2.178,1.345 -4.052,1.452 -6.028,-0.106 L -58.296,10.916 c -2.322,-1.831 -6.828,-4.364 -8.388,-2.902 -0.082,0.904 0.2,2.542 0.666,3.273 5.153,8.071 15.993,17.89 24.763,21.267 2.318,0.893 4.222,0.089 5.94,-1.343 l 7.331,-6.111 9.367,-8.257 z"
       style="fill:#fa9e6b;fill-opacity:1;fill-rule:nonzero;stroke:none"
       transform="matrix(1.3333333,0,0,-1.3333333,111.6084,612.3468)" />
    <path
       id="path142"
       d="m 0,0 6.188,-5.745 5.761,-5.349 c -5.076,-2.122 -10.637,-0.787 -15.212,2.012 -4.315,2.64 -8.998,2.669 -13.238,-0.178 -3.759,-2.524 -8.142,-4.328 -12.558,-2.75 l -8.626,3.081 c -0.926,3.456 -3.433,6.268 -6.631,7.856 l 0.56,1.143 0.443,0.815 c 3.372,-1.781 7.655,-4.187 11.223,-3.117 4.091,1.228 1.34,8.181 -2.875,11.9 l 1.038,1.503 c 6.07,-3.53 13.618,-2.284 19.342,2.231 L -3.561,3.273 Z"
       style="fill:#425991;fill-opacity:1;fill-rule:nonzero;stroke:none"
       transform="matrix(1.3333333,0,0,-1.3333333,131.0556,630.2156)" />
    <path
       id="path143"
       d="m 0,0 c 3.945,-2.971 5.408,-8.843 8.791,-10.256 4.214,-3.719 6.966,-10.672 2.874,-11.9 -3.568,-1.07 -7.851,1.336 -11.222,3.118 l -0.268,1.539 c -4.77,1.997 -9.362,4.29 -13.274,7.379 l 0.641,0.161 -1.256,4.039 c -0.957,3.079 4.672,2.549 6.439,7.192 C -6.527,3.239 -2.171,1.635 0,0"
       style="fill:#fa9c69;fill-opacity:1;fill-rule:nonzero;stroke:none"
       transform="matrix(1.3333333,0,0,-1.3333333,72.7152,603.65053)" />
    <path
       id="path144"
       d="m 0,0 -8.43,-8.95 c -3.675,2.146 -6.984,2.825 -11.276,3.054 l 10.473,6.011 3.969,1.981 c 1.569,0.784 3.762,2.101 4.135,3.851 0.51,2.394 1.698,2.233 3.442,3.331 l 5.933,3.734 c 0.531,0.335 1.678,0.346 2.622,0.271 C 10.142,11.662 9.415,10.548 8.31,9.31 Z"
       style="fill:#fa9e6b;fill-opacity:1;fill-rule:nonzero;stroke:none"
       transform="matrix(1.3333333,0,0,-1.3333333,233.39973,630.4588)" />
    <path
       id="path145"
       d="m 0,0 c -2.171,1.635 -6.527,3.239 -7.275,1.272 -1.767,-4.643 -7.396,-4.113 -6.439,-7.192 l 1.256,-4.039 -0.641,-0.161 c -2.555,2.011 -3.989,5.034 -4.223,8.406 -2.832,1.849 -3.511,5.544 -1.662,7.942 2.154,2.44 5.172,2.738 7.827,0.651 l 3.692,0.14 C -4.172,5.563 -0.615,3.144 0,0"
       style="fill:#f75e45;fill-opacity:1;fill-rule:nonzero;stroke:none"
       transform="matrix(1.3333333,0,0,-1.3333333,72.7152,603.65053)" />
    <path
       id="path146"
       d="m 0,0 -1.99,0.445 c -2.987,1.262 -7.1,1.249 -10.631,-1.175 0.006,1.423 0.581,2.665 1.541,3.715 l 4.449,4.871 C -3.433,6.268 -0.926,3.456 0,0"
       style="fill:#fa9e6b;fill-opacity:1;fill-rule:nonzero;stroke:none"
       transform="matrix(1.3333333,0,0,-1.3333333,80.808933,642.12093)" />
  </g>
</svg>
