<?xml version="1.0" encoding="UTF-8" standalone="no"?>
<svg
   version="1.1"
   id="svg1"
   width="69.267487"
   height="114.18006"
   viewBox="0 0 69.267487 114.18006"
   xmlns="http://www.w3.org/2000/svg"
   xmlns:svg="http://www.w3.org/2000/svg">
  <defs
     id="defs1">
    <clipPath
       clipPathUnits="userSpaceOnUse"
       id="clipPath169">
      <path
         d="M -10.590801,-12.8475 H 60.347201 V 63.585502 H -10.590801 Z"
         id="path169" />
    </clipPath>
  </defs>
  <g
     id="g1"
     transform="translate(-195.36813,-373.72638)">
    <path
       id="path132"
       d="m 0,0 0.255,-4.454 -5.22,-2.772 c -5.193,-2.757 -10.408,-1.345 -15.248,0.643 l 1.159,1.333 c 0.27,0.335 0.896,0.643 1.734,1.091 0.163,-0.027 -0.197,0.031 -0.856,0.137 l -1.042,0.411 c -0.217,0.086 0.392,0.487 0.809,0.667 l 0.562,5.448 0.517,2.978 c 0.233,1.337 0.188,2.415 0.451,3.602 0.823,3.725 1.548,7.636 4.412,10.402 l 5.11,4.934 c 0.402,0.388 2.025,0.907 1.73,1.069 -0.346,1.046 -0.39,1.541 -0.369,2.004 l 0.738,-0.684 18.102,17.491 17.212,15.41 1.566,-0.111 c 0.26,-0.019 0.021,-1.236 -0.134,-1.482 l -4.35,-6.866 -0.83,-2.498 C 24.808,48.039 22.231,47.5 21.404,46.002 L 13.55,31.775 C 9.653,24.715 4.885,18.342 -0.883,12.892 l 0.422,-6.166 z"
       style="fill:#fa9c69;fill-opacity:1;fill-rule:nonzero;stroke:none"
       transform="matrix(1.3333333,0,0,-1.3333333,222.31907,476.22213)" />
    <path
       id="path133"
       d="m 0,0 0.073,-2.461 -0.171,-3.723 c -0.021,-0.463 0.023,-0.958 0.369,-2.004 0.295,-0.162 -1.328,-0.681 -1.73,-1.069 l -5.11,-4.934 c -2.864,-2.766 -3.589,-6.677 -4.412,-10.402 -0.262,-1.187 -0.218,-2.265 -0.45,-3.602 l -0.518,-2.978 -0.562,-5.448 c -0.417,-0.18 -1.026,-0.581 -0.809,-0.667 l 1.042,-0.411 c 0.659,-0.106 1.019,-0.164 0.857,-0.137 -0.839,-0.448 -1.464,-0.756 -1.735,-1.091 l -1.159,-1.333 0.093,5.157 0.389,0.998 c 0.049,0.207 -0.203,0.586 -0.358,0.706 l 0.005,4.727 c 0.424,-0.039 0.869,1.209 0.828,1.714 l -0.607,2.906 0.101,1.59 c 0.637,0.43 0.974,1.885 0.905,2.786 l -0.51,2.889 0.053,1.27 0.57,0.052 c 0.146,0.033 0.146,0.501 0.162,0.72 l 0.347,4.588 0.114,4.461 0.429,6.493 1.317,13.092 2.758,22.763 c 0.266,2.196 0.854,4.562 1.523,6.532 0.918,0.129 1.507,-0.923 1.618,-1.704 l 1.082,-7.61 c 0.163,-1.149 1.32,-2.507 0.332,-3.785 C -4.636,28.178 -4.779,25.931 -4.196,23.55 -2.266,15.666 -0.731,7.899 0,0"
       style="fill:#f59461;fill-opacity:1;fill-rule:nonzero;stroke:none"
       transform="matrix(1.3333333,0,0,-1.3333333,214.4548,431.31947)" />
    <path
       id="path135"
       d="M 0,0 0.263,2.887 0.738,7.772 1.194,9.821 1.08,5.36 0.732,0.771 C 0.716,0.552 0.716,0.084 0.57,0.052 Z"
       style="fill:#fa9e6b;fill-opacity:1;fill-rule:nonzero;stroke:none"
       transform="matrix(1.3333333,0,0,-1.3333333,196.5664,452.00867)" />
    <path
       id="path136"
       d="M 0,0 0.395,5.675 0.905,2.787 C 0.975,1.885 0.637,0.43 0,0"
       style="fill:#fa9e6b;fill-opacity:1;fill-rule:nonzero;stroke:none"
       transform="matrix(1.3333333,0,0,-1.3333333,195.96907,461.26907)" />
    <path
       id="path137"
       d="M 0,0 C 0.002,1.561 -0.072,3.194 0.221,4.62 L 0.828,1.714 C 0.869,1.208 0.424,-0.039 0,0"
       style="fill:#fa9e6b;fill-opacity:1;fill-rule:nonzero;stroke:none"
       transform="matrix(1.3333333,0,0,-1.3333333,195.5404,469.5484)" />
    <path
       id="path138"
       d="M 0,0 -0.074,2.461 Z"
       style="fill:#fa9c69;fill-opacity:1;fill-rule:nonzero;stroke:none"
       transform="matrix(1.3333333,0,0,-1.3333333,214.5528,434.60133)" />
    <path
       id="path139"
       d="M 0,0 0.022,1.247 0.031,1.704 C 0.186,1.584 0.438,1.205 0.39,0.999 Z"
       style="fill:#fa9c69;fill-opacity:1;fill-rule:nonzero;stroke:none"
       transform="matrix(1.3333333,0,0,-1.3333333,195.4916,478.12387)" />
  </g>
</svg>
